<svg width="139" height="32" viewBox="0 0 139 32" fill="none" xmlns="http://www.w3.org/2000/svg">
<g clip-path="url(#clip0_8583_22126)">
<path d="M21.3333 0H10.6667C4.77563 0 0 4.77563 0 10.6667V21.3333C0 27.2244 4.77563 32 10.6667 32H21.3333C27.2244 32 32 27.2244 32 21.3333V10.6667C32 4.77563 27.2244 0 21.3333 0Z" fill="#1A202C"/>
<path d="M14.6901 13.5123C14.6031 13.3618 14.3859 13.3618 14.2989 13.5123L11.4251 18.4884C11.3382 18.639 11.4468 18.8273 11.6207 18.8273H13.1197C13.2004 18.8273 13.2749 18.7842 13.3153 18.7143L15.4396 15.036C15.4799 14.9661 15.4799 14.88 15.4396 14.8101L14.6901 13.5123Z" fill="url(#paint0_linear_8583_22126)"/>
<path d="M16.9317 13.5123C17.0187 13.3618 17.236 13.3618 17.3229 13.5123L18.0724 14.8101C18.1127 14.88 18.1127 14.9661 18.0724 15.036L15.9481 18.7143C15.9077 18.7842 15.8332 18.8273 15.7525 18.8273H14.2535C14.0797 18.8273 13.971 18.639 14.058 18.4884L16.9317 13.5123Z" fill="url(#paint1_linear_8583_22126)"/>
<path d="M20.7052 14.8101C20.7456 14.88 20.7456 14.9661 20.7052 15.036L18.5809 18.7143C18.5406 18.7842 18.466 18.8273 18.3853 18.8273H16.8864C16.7125 18.8273 16.6038 18.639 16.6908 18.4884L19.5646 13.5123C19.6515 13.3618 19.8688 13.3618 19.9557 13.5123L20.7052 14.8101Z" fill="url(#paint2_linear_8583_22126)"/>
<path fill-rule="evenodd" clip-rule="evenodd" d="M15.4354 7.0888C15.7848 6.88707 16.2152 6.88707 16.5647 7.0888L23.4354 11.0556C23.7848 11.2573 24 11.6301 24 12.0336V19.9672C24 20.3707 23.7848 20.7435 23.4354 20.9452L16.5647 24.912C16.2152 25.1138 15.7848 25.1138 15.4354 24.912L8.56463 20.9452C8.21523 20.7435 8 20.3707 8 19.9672V12.0336C8 11.6301 8.21523 11.2573 8.56463 11.0556L15.4354 7.0888ZM15.4353 9.8649C15.7847 9.66317 16.2152 9.66317 16.5646 9.8649L21.0309 12.4435C21.3803 12.6453 21.5956 13.0181 21.5956 13.4215V18.5788C21.5956 18.9823 21.3803 19.3551 21.0309 19.5568L16.5646 22.1355C16.2152 22.3372 15.7847 22.3372 15.4353 22.1355L10.9689 19.5568C10.6195 19.3551 10.4043 18.9823 10.4043 18.5788V13.4215C10.4043 13.0181 10.6195 12.6453 10.9689 12.4435L15.4353 9.8649Z" fill="url(#paint3_linear_8583_22126)"/>
</g>
<path d="M41.4489 25V11.9091H44.9091V14.2188H45.0625C45.3352 13.4517 45.7898 12.8466 46.4261 12.4034C47.0625 11.9602 47.8239 11.7386 48.7102 11.7386C49.608 11.7386 50.3722 11.9631 51.0028 12.4119C51.6335 12.8551 52.054 13.4574 52.2642 14.2188H52.4006C52.6676 13.4688 53.1506 12.8693 53.8494 12.4205C54.554 11.9659 55.3864 11.7386 56.3466 11.7386C57.5682 11.7386 58.5597 12.1278 59.321 12.9062C60.0881 13.679 60.4716 14.7756 60.4716 16.196V25H56.8494V16.9119C56.8494 16.1847 56.6563 15.6392 56.2699 15.2756C55.8835 14.9119 55.4006 14.7301 54.821 14.7301C54.1619 14.7301 53.6477 14.9403 53.2784 15.3608C52.9091 15.7756 52.7244 16.3239 52.7244 17.0057V25H49.2045V16.8352C49.2045 16.1932 49.0199 15.6818 48.6506 15.3011C48.2869 14.9205 47.8068 14.7301 47.2102 14.7301C46.8068 14.7301 46.4432 14.8324 46.1193 15.0369C45.8011 15.2358 45.5483 15.517 45.3608 15.8807C45.1733 16.2386 45.0795 16.6591 45.0795 17.142V25H41.4489ZM68.5854 25.2557C67.2388 25.2557 66.0797 24.983 65.1081 24.4375C64.1422 23.8864 63.3979 23.108 62.8752 22.1023C62.3524 21.0909 62.0911 19.8949 62.0911 18.5142C62.0911 17.1676 62.3524 15.9858 62.8752 14.9688C63.3979 13.9517 64.1337 13.1591 65.0826 12.5909C66.0371 12.0227 67.1564 11.7386 68.4405 11.7386C69.3041 11.7386 70.1081 11.8778 70.8524 12.1562C71.6024 12.429 72.2559 12.8409 72.8127 13.392C73.3752 13.9432 73.8127 14.6364 74.1252 15.4716C74.4377 16.3011 74.5939 17.2727 74.5939 18.3864V19.3835H63.5399V17.1335H71.1763C71.1763 16.6108 71.0627 16.1477 70.8354 15.7443C70.6081 15.3409 70.2928 15.0256 69.8894 14.7983C69.4916 14.5653 69.0286 14.4489 68.5002 14.4489C67.949 14.4489 67.4604 14.5767 67.0343 14.8324C66.6138 15.0824 66.2843 15.4205 66.0456 15.8466C65.807 16.267 65.6848 16.7358 65.6791 17.2528V19.392C65.6791 20.0398 65.7985 20.5994 66.0371 21.071C66.2814 21.5426 66.6252 21.9062 67.0684 22.1619C67.5115 22.4176 68.0371 22.5455 68.6451 22.5455C69.0485 22.5455 69.4178 22.4886 69.753 22.375C70.0882 22.2614 70.3752 22.0909 70.6138 21.8636C70.8524 21.6364 71.0343 21.358 71.1593 21.0284L74.5172 21.25C74.3468 22.0568 73.9973 22.7614 73.4689 23.3636C72.9462 23.9602 72.2701 24.4261 71.4405 24.7614C70.6166 25.0909 69.6649 25.2557 68.5854 25.2557ZM83.2063 11.9091V14.6364H75.3228V11.9091H83.2063ZM77.1126 8.77273H80.7432V20.9773C80.7432 21.3125 80.7944 21.5739 80.8966 21.7614C80.9989 21.9432 81.141 22.071 81.3228 22.1449C81.5103 22.2187 81.7262 22.2557 81.9705 22.2557C82.141 22.2557 82.3114 22.2415 82.4819 22.2131C82.6523 22.179 82.783 22.1534 82.8739 22.1364L83.4449 24.8381C83.2631 24.8949 83.0074 24.9602 82.6779 25.0341C82.3484 25.1136 81.9478 25.1619 81.4762 25.179C80.6012 25.2131 79.8341 25.0966 79.1751 24.8295C78.5216 24.5625 78.0131 24.1477 77.6495 23.5852C77.2859 23.0227 77.1069 22.3125 77.1126 21.4545V8.77273ZM88.5843 25.2472C87.7491 25.2472 87.0048 25.1023 86.3514 24.8125C85.698 24.517 85.1809 24.0824 84.8002 23.5085C84.4252 22.929 84.2377 22.2074 84.2377 21.3438C84.2377 20.6165 84.3713 20.0057 84.6383 19.5114C84.9053 19.017 85.269 18.6193 85.7292 18.3182C86.1894 18.017 86.7122 17.7898 87.2974 17.6364C87.8883 17.483 88.5076 17.375 89.1553 17.3125C89.9167 17.233 90.5303 17.1591 90.9963 17.0909C91.4622 17.017 91.8002 16.9091 92.0105 16.767C92.2207 16.625 92.3258 16.4148 92.3258 16.1364V16.0852C92.3258 15.5455 92.1553 15.1278 91.8144 14.8324C91.4792 14.5369 91.0019 14.3892 90.3826 14.3892C89.7292 14.3892 89.2093 14.5341 88.823 14.8239C88.4366 15.108 88.1809 15.4659 88.0559 15.8977L84.698 15.625C84.8684 14.8295 85.2036 14.142 85.7036 13.5625C86.2036 12.9773 86.8485 12.5284 87.6383 12.2159C88.4338 11.8977 89.3542 11.7386 90.3997 11.7386C91.1269 11.7386 91.823 11.8239 92.4877 11.9943C93.1582 12.1648 93.7519 12.429 94.269 12.7869C94.7917 13.1449 95.2036 13.6051 95.5048 14.1676C95.8059 14.7244 95.9565 15.392 95.9565 16.1705V25H92.5133V23.1847H92.411C92.2008 23.5938 91.9195 23.9545 91.5673 24.267C91.215 24.5739 90.7917 24.8153 90.2974 24.9915C89.8031 25.1619 89.232 25.2472 88.5843 25.2472ZM89.6241 22.7415C90.1582 22.7415 90.6298 22.6364 91.0389 22.4261C91.448 22.2102 91.769 21.9205 92.0019 21.5568C92.2349 21.1932 92.3514 20.7812 92.3514 20.321V18.9318C92.2377 19.0057 92.0815 19.0739 91.8826 19.1364C91.6894 19.1932 91.4707 19.2472 91.2264 19.2983C90.982 19.3437 90.7377 19.3864 90.4934 19.4261C90.2491 19.4602 90.0275 19.4915 89.8286 19.5199C89.4025 19.5824 89.0303 19.6818 88.7122 19.8182C88.394 19.9545 88.1468 20.1392 87.9707 20.3722C87.7945 20.5994 87.7065 20.8835 87.7065 21.2244C87.7065 21.7188 87.8855 22.0966 88.2434 22.358C88.607 22.6136 89.0673 22.7415 89.6241 22.7415Z" fill="#1A202C"/>
<path d="M98.0532 25V11.9091H101.513V14.2188H101.667C101.94 13.4517 102.394 12.8466 103.031 12.4034C103.667 11.9602 104.428 11.7386 105.315 11.7386C106.212 11.7386 106.977 11.9631 107.607 12.4119C108.238 12.8551 108.658 13.4574 108.869 14.2188H109.005C109.272 13.4688 109.755 12.8693 110.454 12.4205C111.158 11.9659 111.991 11.7386 112.951 11.7386C114.173 11.7386 115.164 12.1278 115.925 12.9062C116.692 13.679 117.076 14.7756 117.076 16.196V25H113.454V16.9119C113.454 16.1847 113.261 15.6392 112.874 15.2756C112.488 14.9119 112.005 14.7301 111.425 14.7301C110.766 14.7301 110.252 14.9403 109.883 15.3608C109.513 15.7756 109.329 16.3239 109.329 17.0057V25H105.809V16.8352C105.809 16.1932 105.624 15.6818 105.255 15.3011C104.891 14.9205 104.411 14.7301 103.815 14.7301C103.411 14.7301 103.048 14.8324 102.724 15.0369C102.406 15.2358 102.153 15.517 101.965 15.8807C101.778 16.2386 101.684 16.6591 101.684 17.142V25H98.0532ZM119.224 25V11.9091H122.855V25H119.224ZM121.048 10.2216C120.508 10.2216 120.045 10.0426 119.659 9.68466C119.278 9.32102 119.088 8.88636 119.088 8.38068C119.088 7.88068 119.278 7.4517 119.659 7.09375C120.045 6.73011 120.508 6.54829 121.048 6.54829C121.588 6.54829 122.048 6.73011 122.428 7.09375C122.815 7.4517 123.008 7.88068 123.008 8.38068C123.008 8.88636 122.815 9.32102 122.428 9.68466C122.048 10.0426 121.588 10.2216 121.048 10.2216ZM128.674 17.4318V25H125.043V11.9091H128.503V14.2188H128.657C128.946 13.4574 129.432 12.8551 130.114 12.4119C130.796 11.9631 131.622 11.7386 132.594 11.7386C133.503 11.7386 134.296 11.9375 134.972 12.3352C135.648 12.733 136.174 13.3011 136.549 14.0398C136.924 14.7727 137.111 15.6477 137.111 16.6648V25H133.48V17.3125C133.486 16.5114 133.282 15.8864 132.867 15.4375C132.452 14.983 131.881 14.7557 131.154 14.7557C130.665 14.7557 130.233 14.8608 129.858 15.071C129.489 15.2812 129.199 15.5881 128.989 15.9915C128.784 16.3892 128.679 16.8693 128.674 17.4318Z" fill="url(#paint4_linear_8583_22126)"/>
<defs>
<linearGradient id="paint0_linear_8583_22126" x1="7.99968" y1="6.93758" x2="26.7068" y2="10.3885" gradientUnits="userSpaceOnUse">
<stop stop-color="#FCD535"/>
<stop offset="1" stop-color="#FCB835"/>
</linearGradient>
<linearGradient id="paint1_linear_8583_22126" x1="7.99966" y1="6.93758" x2="26.7068" y2="10.3885" gradientUnits="userSpaceOnUse">
<stop stop-color="#FCD535"/>
<stop offset="1" stop-color="#FCB835"/>
</linearGradient>
<linearGradient id="paint2_linear_8583_22126" x1="8.00014" y1="6.93758" x2="26.7072" y2="10.3885" gradientUnits="userSpaceOnUse">
<stop stop-color="#FCD535"/>
<stop offset="1" stop-color="#FCB835"/>
</linearGradient>
<linearGradient id="paint3_linear_8583_22126" x1="8" y1="6.9375" x2="26.7071" y2="10.3884" gradientUnits="userSpaceOnUse">
<stop stop-color="#FCD535"/>
<stop offset="1" stop-color="#FCB835"/>
</linearGradient>
<linearGradient id="paint4_linear_8583_22126" x1="40" y1="0" x2="58.73" y2="57.9459" gradientUnits="userSpaceOnUse">
<stop stop-color="#FCDD35"/>
<stop offset="1" stop-color="#FCB835"/>
</linearGradient>
<clipPath id="clip0_8583_22126">
<rect width="32" height="32" fill="white"/>
</clipPath>
</defs>
</svg>
