<svg xmlns:xlink="http://www.w3.org/1999/xlink" xmlns="http://www.w3.org/2000/svg" width="259" height="239" viewBox="0 0 259 239" fill="none">
<path d="M135.338 57.2276C135.338 57.2276 136.115 57.4097 136.892 57.5918C137.669 57.7739 138.403 57.9561 138.403 57.9561C137.928 58.2747 137.108 58.0471 136.374 57.8195C135.64 57.5918 135.078 57.3642 135.208 57.5918C136.762 58.4569 136.244 58.6845 135.769 58.639C135.553 58.639 135.294 58.5479 135.165 58.5934C135.035 58.5934 135.035 58.73 135.165 59.1398C135.122 59.0942 135.078 59.0487 135.035 59.0032L134.949 59.0487C134.819 59.0942 134.69 59.1398 134.56 59.2308C134.301 59.3674 133.999 59.4584 133.697 59.595C132.531 60.0503 131.365 60.46 131.279 59.9592C130.674 62.2356 126.788 63.0551 124.111 65.1038C123.291 66.1509 125.104 65.1038 126.141 65.0583L119.794 69.4744C116.944 70.5671 115.821 70.1118 118.585 68.2452C114.181 70.7492 105.588 75.6206 94.837 82.4952C94.1462 82.9049 93.4985 83.3602 92.8077 83.8155C92.1168 84.2707 91.426 84.6805 90.7351 85.1813C89.1808 86.2284 87.54 87.3211 85.8993 88.4137L84.9494 89.0511L83.9563 89.734C83.3086 90.1893 82.661 90.6901 82.0133 91.1453C80.718 92.1014 79.4226 93.0575 78.0841 94.0591C76.7456 95.0151 75.4503 96.0167 74.1118 97.0183C73.421 97.5191 72.7733 98.0199 72.0825 98.5207C71.3916 99.0215 70.7871 99.5679 70.1395 100.069C67.5488 102.163 64.9582 104.303 62.3243 106.442C61.6767 106.989 60.9858 107.49 60.3814 108.081C59.7769 108.628 59.1724 109.174 58.5247 109.766C57.3158 110.904 56.0636 111.997 54.8115 113.135C53.5593 114.273 52.3503 115.411 51.0982 116.504C50.7959 116.777 50.4505 117.05 50.1915 117.369L49.3279 118.234L47.6008 119.964C45.3124 122.286 43.024 124.608 40.7356 126.93C38.7062 129.252 36.6769 131.573 34.6476 133.895L33.1363 135.534C32.8773 135.807 32.6182 136.126 32.4023 136.399L31.7115 137.264C30.8048 138.403 29.9412 139.541 29.0345 140.724C28.1277 141.863 27.2642 143.001 26.3575 144.139C25.9257 144.731 25.4939 145.277 25.019 145.823C24.6304 146.37 24.2418 146.916 23.8532 147.508C22.342 149.739 20.8308 151.924 19.3195 154.155L18.7582 154.974C18.5855 155.248 18.4128 155.521 18.2833 155.794C17.981 156.34 17.6356 156.841 17.3334 157.387C16.6857 158.434 16.0812 159.482 15.4336 160.529C14.8291 161.576 14.1814 162.623 13.5769 163.67C13.2315 164.171 13.0156 164.672 12.7566 165.172C12.4975 165.673 12.2384 166.174 11.9794 166.675C10.9431 168.678 9.90684 170.636 8.91376 172.548C8.65469 173.049 8.43881 173.504 8.22292 173.959C8.00703 174.414 7.79114 174.87 7.61843 175.371C7.18666 176.281 6.79806 177.192 6.40946 178.102C4.68236 181.744 3.51657 185.068 2.3076 188.255C2.17806 188.664 2.00535 189.029 1.87582 189.438C1.74629 189.803 1.5304 190.212 1.48722 190.577C1.35769 191.305 1.18498 191.988 1.05545 192.671C0.796383 194.037 0.53732 195.357 0.278254 196.586C0.235077 196.905 0.148721 197.224 0.105544 197.497C0.0623662 197.633 0.0623675 197.815 0.01919 197.952C-0.0239875 198.089 0.01919 198.225 0.01919 198.362C0.01919 198.908 0.01919 199.409 0.01919 199.955C0.01919 200.957 0.01919 201.958 0.01919 202.869C0.01919 203.324 0.01919 203.734 0.01919 204.189C0.01919 204.417 0.01919 204.599 0.01919 204.827C0.01919 205.009 0.0191893 205.236 0.0623669 205.418C0.191899 206.101 0.321433 206.739 0.450965 207.331C0.580498 206.921 0.666852 206.511 0.71003 206.056C0.753207 205.828 0.753206 205.601 0.753206 205.373C0.753206 205.236 0.753206 205.145 0.753206 205.009V204.827L0.796383 204.645C0.969093 203.552 1.09863 202.368 1.22816 201.184C1.40087 200.001 1.57358 198.817 1.87582 197.724C2.00535 197.178 2.35078 196.586 2.65302 196.04C2.95526 195.494 3.30068 194.993 3.73246 194.492C3.73246 195.175 3.68928 195.812 3.6461 196.404C3.68928 196.996 3.68928 197.497 3.68928 197.998C3.6461 199.045 3.55974 199.955 3.43021 200.82C3.34386 201.64 3.21433 202.414 3.2575 203.051C3.2575 203.233 3.2575 203.37 3.30068 203.506C3.34386 203.643 3.38703 203.779 3.43021 203.871C3.55974 204.098 3.68928 204.326 3.86199 204.508C3.08479 205.418 2.73937 206.602 2.60984 207.922C2.52349 209.243 2.48031 210.791 2.86891 212.156C3.17115 213.568 3.51657 215.025 3.68928 216.436C3.73246 217.164 3.86199 217.802 3.90517 218.485C3.94834 219.168 4.0347 219.896 3.99152 220.67C3.99152 220.67 4.55283 220.852 5.15731 221.08C5.7618 221.307 6.36628 221.49 6.36628 221.49C6.36628 221.49 6.45264 221.717 6.53899 222.036C6.62535 222.355 6.79806 222.81 6.92759 223.265C7.22984 224.085 7.4889 224.904 7.4889 224.904C8.61151 226.179 9.51824 226.998 10.2523 227.59C10.9863 228.228 11.5476 228.592 12.1089 228.956C12.627 229.32 13.102 229.593 13.4906 229.821C13.8792 230.049 14.2246 230.231 14.5268 230.367C15.6926 230.959 16.0812 231.096 16.3403 231.323C16.5994 231.506 16.7289 231.733 17.5061 232.371C17.8947 232.689 18.4128 233.053 19.2764 233.554C20.0967 234.055 21.1762 234.692 22.7737 235.33C24.7167 236.013 26.8324 236.286 28.9481 236.377C29.5094 236.377 30.0276 236.422 30.5457 236.422C31.1502 236.377 31.7115 236.377 32.2728 236.331C33.3954 236.24 34.4748 236.195 35.5111 236.104C36.461 236.058 37.7132 235.831 38.8358 235.649C39.9584 235.466 40.9946 235.33 41.9877 235.239C42.5059 235.193 42.9808 235.148 43.4558 235.102C44.0603 235.011 44.6216 234.875 45.1829 234.829C46.3055 234.647 47.3849 234.556 48.4212 234.51C47.0395 234.692 44.5784 233.827 49.3711 232.462C49.112 232.962 49.8029 233.008 50.9687 232.78C51.2709 232.735 51.5731 232.644 51.9186 232.598C52.264 232.507 52.6958 232.371 53.1275 232.234C53.9911 231.915 54.941 231.597 55.8477 231.278C57.7475 230.641 59.6473 229.958 61.1585 229.548C61.3313 229.502 61.5472 229.411 61.763 229.366C61.9357 229.32 62.1516 229.229 62.3243 229.184C62.6698 229.093 63.0152 229.002 63.2743 228.956C63.8356 228.865 64.2242 228.865 64.3969 229.002C65.7785 228.455 67.9374 227.681 70.269 226.816C70.8303 226.634 71.5212 226.315 72.1256 226.042C72.7733 225.769 73.421 225.496 74.0686 225.177C75.3639 224.631 76.6161 224.039 77.8251 223.493C80.1998 222.4 82.2292 221.353 83.3086 220.625C84.4312 219.851 84.6039 219.395 83.395 219.35C84.6039 219.395 89.2671 217.756 92.4191 216.8C95.5278 215.89 97.0823 215.571 91.9441 218.166C94.7507 217.073 97.4708 215.981 100.018 214.979C100.666 214.706 101.27 214.478 101.918 214.205C102.523 213.932 103.127 213.704 103.732 213.477C104.897 212.976 106.02 212.475 107.013 211.974C107.013 211.974 105.286 212.521 103.516 213.067C102.652 213.34 101.789 213.613 101.141 213.841C100.493 214.069 100.061 214.205 100.061 214.205C102.436 213.158 104.595 212.339 106.668 211.519C108.74 210.7 110.726 209.971 112.583 209.288C116.339 207.968 119.707 206.784 122.859 205.692C126.054 204.645 129.034 203.597 131.926 202.459C133.395 201.867 134.819 201.321 136.244 200.684C136.59 200.547 136.935 200.365 137.324 200.228L137.842 200.001L137.971 199.955L138.058 199.91H138.101L138.23 199.819C138.576 199.591 138.921 199.409 139.267 199.136C139.267 199.136 139.051 199.181 138.705 199.181C138.317 199.227 138.101 199.181 137.021 199.454C135.294 199.819 133.567 200.183 133.567 200.183C134.906 199.682 136.244 199.272 137.496 198.817C138.187 198.589 138.878 198.362 139.526 198.134C140.778 197.724 141.987 197.406 143.066 197.133C144.189 196.905 145.182 196.723 146.089 196.723C146.564 196.723 146.952 196.768 147.384 196.814C147.47 196.814 147.6 196.859 147.686 196.859L147.816 196.905C147.816 196.905 147.859 196.95 147.859 196.996C147.902 197.087 147.945 197.224 147.989 197.315C147.989 197.315 147.989 197.315 147.989 197.36C147.989 197.36 147.989 197.36 147.945 197.406C147.859 197.451 147.729 197.497 147.6 197.542C147.082 197.77 146.391 198.043 145.7 198.362C144.318 198.954 142.894 199.545 142.894 199.545C144.059 199.181 145.139 198.817 146.218 198.498C146.736 198.316 147.255 198.18 147.773 197.998L148.075 197.907H148.118C148.161 197.907 148.161 197.907 148.161 197.861C148.334 197.724 148.55 197.633 148.766 197.497C149.154 197.224 149.586 196.768 150.32 196.04L149.932 196.085C150.493 195.311 151.875 194.355 154.077 193.308C156.279 192.261 159.301 191.123 162.755 190.076C165.044 189.393 167.462 188.756 169.88 188.073C172.254 187.435 174.586 186.798 176.529 186.161C176.529 186.161 177.133 185.614 177.695 185.068C178.256 184.522 178.774 183.975 178.774 183.975C178.774 183.975 180.372 183.52 182.056 183.11C183.783 182.7 185.51 182.291 185.51 182.291C185.337 182.291 181.537 183.975 178.04 185.66C174.543 187.299 171.391 188.892 171.909 188.528C172.6 188.528 173.636 188.482 175.018 188.528C175.709 188.528 176.486 188.528 177.22 188.801C177.608 188.938 177.997 189.165 178.213 189.53C178.429 189.894 178.515 190.349 178.386 190.713C178.126 191.487 177.392 191.988 176.745 192.534C176.054 193.035 175.363 193.581 174.586 194.128C173.075 195.175 171.391 196.222 169.62 197.269C166.166 199.363 162.496 201.594 159.733 203.871C158.351 204.963 157.142 206.101 156.235 207.012C156.106 207.149 156.02 207.24 155.89 207.331L155.804 207.422C155.76 207.467 155.76 207.467 155.76 207.467L155.717 207.513L155.545 207.695C155.458 207.831 155.329 207.922 155.242 208.059C154.854 208.514 154.422 208.97 154.077 209.425C153.688 209.88 153.343 210.335 152.997 210.745C152.306 211.61 151.659 212.339 151.097 213.067C150.536 213.795 150.018 214.433 149.586 214.979C149.198 215.389 148.852 215.799 148.55 216.117C148.248 216.482 147.989 216.755 147.729 216.982C147.255 217.483 146.909 217.802 146.607 217.984C146.046 218.348 145.873 218.075 145.873 217.62C145.873 216.664 146.607 214.752 146.564 214.66C145.83 215.89 145.225 216.937 144.793 217.756C144.491 218.303 144.232 218.803 144.016 219.213C143.757 219.668 143.584 219.987 143.412 220.351C143.325 220.533 143.239 220.716 143.153 220.943C143.066 221.125 142.98 221.307 142.894 221.49C142.203 223.037 141.598 224.631 141.21 226.179C140.778 227.772 140.519 229.184 140.303 230.732C140.26 231.141 140.217 231.506 140.173 231.915C140.13 232.28 140.087 232.78 140.087 233.19C140.044 233.645 140.044 234.055 140.044 234.556C140.044 235.057 140.044 235.603 140.044 236.104C140.044 236.377 140.087 236.65 140.087 236.923C140.087 237.242 140.13 237.561 140.173 237.879C140.217 238.517 140.303 239.2 140.432 239.928C140.562 240.656 140.692 241.43 140.907 242.25C141.123 243.069 141.339 243.934 141.685 244.845L141.728 245.027C141.857 245.391 141.987 245.801 142.16 246.165V246.211L142.203 246.256L142.246 246.302V246.347C142.332 246.53 142.375 246.712 142.462 246.894C142.764 247.622 143.109 248.351 143.498 249.125C143.584 249.261 143.671 249.443 143.757 249.58C143.843 249.716 143.887 249.807 143.973 249.944C144.103 250.172 144.275 250.445 144.405 250.672C145.614 252.63 147.125 254.451 148.679 255.954C150.234 257.456 151.831 258.685 153.343 259.596C154.033 260.051 154.811 260.461 155.415 260.825C155.588 260.916 155.717 261.007 155.89 261.053C156.063 261.144 156.192 261.189 156.365 261.28C156.495 261.371 156.667 261.417 156.797 261.508C157.142 261.645 157.488 261.827 157.833 261.963C158.697 262.464 158.481 262.692 157.919 262.783C157.79 262.783 157.617 262.828 157.444 262.828H157.401H157.358L156.495 262.464H156.451C156.322 262.418 156.192 262.373 156.106 262.327C155.89 262.236 155.588 262.145 155.286 262.054C154.12 261.599 152.652 260.871 151.27 259.96C151.745 260.324 152.177 260.552 152.609 260.825L153.213 261.189L153.774 261.508L154.336 261.827L154.854 262.1C155.199 262.282 155.458 262.418 155.76 262.555L156.149 262.737L156.235 262.783L157.229 263.238L157.315 263.283L157.574 263.375C157.747 263.466 157.919 263.511 158.092 263.602C158.265 263.693 158.437 263.739 158.567 263.83L158.697 263.875L158.783 263.921L158.956 263.966C159.172 264.057 159.387 264.148 159.603 264.194C160.467 264.513 161.287 264.786 162.021 265.059C162.194 265.105 162.41 265.196 162.583 265.241C162.669 265.287 162.755 265.287 162.842 265.332C162.928 265.332 162.971 265.378 163.057 265.378C163.317 265.423 163.576 265.514 163.835 265.56C164.31 265.696 164.741 265.787 165.13 265.833C165.864 265.97 166.339 265.97 166.512 265.787C165.562 265.514 164.741 265.241 164.094 264.968C163.792 264.831 163.489 264.695 163.23 264.558C163.101 264.467 162.928 264.422 162.798 264.331C162.669 264.24 162.496 264.194 162.41 264.103C161.374 263.511 160.942 262.965 160.726 262.51C160.467 262.054 160.424 261.645 160.208 261.189C159.862 260.688 159.906 260.324 159.603 259.869C159.603 259.869 159.733 259.914 159.949 260.051C159.992 260.097 160.078 260.097 160.165 260.142C160.337 260.188 160.553 260.279 160.726 260.37C161.158 260.506 161.589 260.688 162.108 260.871C162.626 261.053 163.187 261.235 163.748 261.417C164.266 261.553 164.698 261.69 165.216 261.827C165.734 261.963 166.253 262.1 166.771 262.191C167.289 262.282 167.807 262.373 168.325 262.51C168.843 262.601 169.405 262.692 169.88 262.783C170.398 262.828 170.873 262.919 171.348 262.965C172.341 263.101 173.161 263.147 173.938 263.147C174.672 263.192 175.32 263.192 175.709 263.192C176.14 263.192 176.356 263.192 176.356 263.192L175.665 264.422C176.097 264.422 176.572 264.376 177.047 264.285C177.306 264.24 177.565 264.194 177.824 264.103C178.083 264.012 178.342 263.966 178.645 263.875C179.206 263.693 179.854 263.466 180.501 263.238C181.149 263.01 181.883 262.737 182.66 262.464C183.394 262.191 184.258 261.872 185.121 261.553C185.985 261.235 186.978 260.916 187.971 260.597C190 259.96 192.289 259.323 194.836 258.731C195.354 258.594 195.872 258.458 196.391 258.321C196.865 258.184 197.384 258.048 197.859 257.911C198.852 257.638 199.845 257.365 200.838 257.092C202.824 256.545 204.81 255.908 206.753 255.316C210.682 254.087 214.611 252.721 218.497 251.355C226.269 248.624 233.825 245.756 241.079 243.206C241.079 243.98 238.186 245.482 235.25 247.03C237.193 246.347 240.086 245.073 242.029 244.891C238.143 244.982 247.815 241.84 244.922 242.341C254.594 235.648 269.101 233.099 277.823 227.727C277.823 224.904 283.436 177.146 282.443 174.141C285.379 173.14 288.272 172.093 289.222 172.002C288.229 171.592 282.443 173.367 279.55 174.87V176.645C272.772 179.787 277.607 176.281 270.829 178.922C270.008 177.738 276.183 175.143 281.666 172.958C276.658 174.642 271.39 175.507 269.835 177.692C265 178.876 269.835 175.917 264.007 177.419C260.121 179.286 255.285 182.518 250.449 183.429V183.156C238.834 185.933 233.998 191.487 223.333 193.946L224.283 193.081C220.397 193.672 213.662 197.315 207.099 198.772C208.998 198.407 210.855 198.772 207.099 200.319C199.586 202.095 195.009 204.553 189.568 205.191C189.568 205.191 188.446 205.919 187.28 206.602C186.157 207.285 185.035 208.014 185.035 208.014C184.301 208.241 183.48 208.469 182.617 208.696C182.401 208.742 182.228 208.833 182.012 208.879C181.84 208.924 181.624 208.97 181.451 209.015C181.235 209.061 181.063 209.106 180.847 209.197C180.674 209.243 180.458 209.288 180.285 209.334C178.774 209.698 177.306 210.017 176.486 210.108C176.399 210.108 176.27 210.153 176.183 210.153C176.097 210.153 176.054 210.153 175.968 210.153C175.924 210.153 175.881 210.153 175.881 210.153H175.838C175.795 210.153 175.752 210.153 175.752 210.153C175.752 210.153 175.752 210.153 175.752 210.199C175.752 210.563 175.709 210.973 175.665 211.383C175.622 211.792 175.622 212.111 175.579 212.43C175.579 212.748 175.536 213.067 175.493 213.386C175.449 213.704 175.406 214.023 175.363 214.342C175.32 214.615 175.32 214.843 175.277 215.116C175.234 215.389 175.19 215.617 175.147 215.89L175.061 216.299C175.018 216.436 175.018 216.482 175.018 216.618C174.931 216.982 174.845 217.392 174.759 217.802C174.759 217.847 174.759 217.847 174.759 217.893L174.802 217.938L174.845 218.075C174.888 218.166 174.931 218.257 174.931 218.303C175.018 218.485 175.061 218.667 175.104 218.849C175.147 218.94 175.147 219.031 175.19 219.122C175.19 219.122 175.234 219.168 175.19 219.168H175.104H174.931C174.715 219.168 174.5 219.168 174.24 219.122C174.025 219.122 173.766 219.122 173.55 219.077H173.506C173.981 217.438 169.275 233.008 171.218 226.589L170.916 227.363L170.311 228.774C170.139 229.138 169.966 229.548 169.793 229.912C169.664 230.231 169.534 230.504 169.361 230.823C168.282 233.008 167.591 234.055 166.987 234.829C166.684 235.193 166.425 235.421 166.253 235.603C166.209 235.649 166.166 235.694 166.123 235.694C166.08 235.74 166.037 235.74 166.037 235.785C165.994 235.785 165.994 235.876 165.994 235.876C165.994 235.876 165.994 235.922 165.95 235.922C165.95 235.922 165.907 235.876 165.907 235.831L165.864 235.74L165.821 235.694C165.994 235.876 165.864 235.74 165.907 235.785C165.907 235.785 165.907 235.785 165.95 235.785H165.994C166.08 235.785 166.123 235.785 166.253 235.785H166.425C166.512 235.785 166.555 235.785 166.641 235.785L166.9 235.831C166.987 235.831 167.073 235.876 167.203 235.876C167.418 235.922 167.634 235.967 167.893 236.058C168.368 236.24 169.059 236.468 169.75 236.832C169.966 236.923 170.182 237.014 170.354 237.151L171.045 237.515C171.304 237.652 171.52 237.788 171.779 237.925L172.686 238.471L173.679 239.109C174.068 239.336 174.5 239.609 174.888 239.883L175.19 240.065L175.622 240.338L176.443 240.93L177.263 241.522L177.695 241.84C177.781 241.931 178.126 242.113 178.342 242.25L181.192 244.025L181.926 244.481C180.803 243.661 194.793 253.814 188.834 249.489L188.878 249.443L189.007 249.261L189.266 248.897C189.612 248.396 189.871 247.895 190.259 247.395C190.605 246.894 190.95 246.393 191.339 245.892C191.727 245.391 192.116 244.891 192.505 244.344C192.72 244.071 192.936 243.843 193.152 243.57L193.843 242.751L194.836 241.658C196.261 240.247 197.686 238.835 199.111 237.424C199.456 237.06 199.888 236.741 200.276 236.422L201.485 235.421C202.306 234.738 203.083 234.101 203.903 233.418C204.119 233.236 204.292 233.099 204.508 232.917L205.156 232.416L206.494 231.46C207.358 230.823 208.264 230.14 209.128 229.502L209.776 229.002C209.991 228.819 210.251 228.683 210.466 228.501L211.891 227.545C212.841 226.907 213.791 226.27 214.784 225.633C215.734 224.995 216.77 224.358 217.807 223.72C218.843 223.083 219.879 222.446 220.872 221.808C225.06 219.213 229.421 216.618 233.825 213.978C236.027 212.657 238.186 211.337 240.388 210.017C240.907 209.698 241.511 209.334 242.029 209.015L243.584 208.014L246.736 206.01C247.254 205.692 247.815 205.327 248.29 205.009L249.758 204.007L252.694 202.049C253.169 201.731 253.687 201.412 254.162 201.048L255.501 200.092L258.178 198.18C258.609 197.861 259.084 197.542 259.473 197.224L260.595 196.313L262.884 194.492L264.007 193.581L264.87 192.716L266.597 191.032L267.461 190.167C267.72 189.894 267.893 189.666 268.108 189.393L269.404 187.845L270.051 187.071C270.267 186.798 270.397 186.57 270.57 186.343L271.563 184.931C272.297 183.93 272.685 183.156 273.246 182.245L273.635 181.608C273.678 181.517 273.765 181.38 273.808 181.289L273.937 181.016L274.542 179.832L274.844 179.24C274.93 179.058 275.06 178.831 275.103 178.694L275.578 177.601C275.751 177.237 275.924 176.873 276.053 176.554C276.183 176.236 276.312 175.871 276.442 175.553C277.478 172.912 278.082 170.681 278.601 168.633C279.075 166.584 279.421 164.763 279.637 162.987C279.68 162.532 279.766 162.122 279.809 161.712C279.853 161.303 279.896 160.893 279.939 160.483C280.025 159.664 280.069 158.935 280.069 157.888C280.069 156.887 279.939 155.657 279.594 153.973C279.248 152.288 278.601 150.285 277.866 148.692C277.132 147.098 276.398 145.915 275.751 144.958C275.103 144.002 274.499 143.274 273.937 142.637C273.376 141.999 272.815 141.498 272.297 140.998C271.778 140.497 271.304 140.041 270.872 139.586L271.649 139.996C271.347 139.723 271.044 139.404 270.699 139.085C270.354 138.812 269.965 138.494 269.576 138.175C269.188 137.856 268.799 137.583 268.411 137.264C268.238 137.128 268.022 136.946 267.806 136.809C267.59 136.672 267.418 136.49 267.202 136.354C266.295 135.762 265.345 135.125 264.352 134.533C264.093 134.396 263.877 134.214 263.618 134.077C263.359 133.941 263.057 133.804 262.798 133.622C262.236 133.349 261.632 133.03 261.07 132.712C260.466 132.393 259.905 132.12 259.3 131.801L259.084 131.665L258.825 131.573L258.307 131.391C257.962 131.255 257.616 131.118 257.228 130.982C256.537 130.708 255.803 130.435 255.069 130.162C254.723 130.026 254.335 129.889 253.989 129.752C253.601 129.616 253.126 129.525 252.737 129.434C251.874 129.206 251.01 129.024 250.103 128.796C249.672 128.705 249.24 128.569 248.765 128.478L248.117 128.295L247.772 128.204C247.642 128.204 247.513 128.159 247.383 128.159C245.311 127.931 243.195 127.658 241.036 127.43C233.437 127.066 225.19 126.93 216.166 127.248C207.055 127.658 197.168 128.523 186.676 130.071C176.227 131.528 165.087 133.804 153.904 136.627L149.716 137.674C148.334 138.038 146.909 138.448 145.527 138.812C142.721 139.586 139.958 140.36 137.151 141.18C135.769 141.589 134.344 141.999 132.963 142.454C132.142 142.728 131.365 142.955 130.545 143.228C128.99 143.729 127.436 144.23 125.882 144.776C125.104 145.049 124.327 145.277 123.55 145.55C122.989 145.732 122.384 145.96 121.823 146.142C121.607 146.233 121.391 146.324 121.175 146.415C120.744 146.597 120.312 146.78 119.88 147.007C119.016 147.417 118.11 147.872 117.203 148.327C115.39 149.284 113.447 150.376 111.46 151.605C111.849 150.786 111.719 150.604 111.331 150.604C110.985 150.604 110.424 150.831 110.338 150.604C110.035 151.059 109.345 151.696 108.697 152.288C108.049 152.88 107.402 153.335 107.143 153.381C106.236 153.609 105.631 153.791 105.156 154.018C104.681 154.246 104.293 154.519 103.861 154.838C103.429 155.156 102.911 155.566 102.134 155.93C101.745 156.113 101.27 156.295 100.709 156.386C100.407 156.431 100.105 156.431 99.8024 156.34C99.5002 156.249 99.2411 156.022 99.1979 155.748C98.7662 154.838 99.5002 152.425 101.227 149.602C102.911 146.78 105.675 143.638 108.611 141.089C110.079 139.814 111.59 138.63 113.058 137.629C113.792 137.128 114.483 136.672 115.174 136.263C115.519 136.035 115.864 135.853 116.167 135.671C116.339 135.58 116.512 135.443 116.728 135.352C117.289 134.988 117.851 134.624 118.412 134.26C128.3 127.795 136.935 122.878 141.685 120.328C146.218 116.458 151.918 112.953 157.66 109.538C159.517 108.446 161.417 107.353 163.273 106.26C165.821 104.758 168.368 103.256 170.829 101.799C175.795 98.8394 180.458 95.8802 184.603 93.0575L183.221 94.4233C185.553 92.9664 189.223 90.6445 193.929 87.6853C195.095 86.9568 196.347 86.1829 197.643 85.3634C198.895 84.5439 200.19 83.6789 201.572 82.8139C202.954 81.9033 204.335 80.9928 205.803 80.0367C206.149 79.8091 206.537 79.5359 206.926 79.3083C207.314 79.0806 207.66 78.8075 208.005 78.5798C208.696 78.079 209.43 77.5783 210.164 77.0775C211.632 76.0759 213.1 74.9832 214.655 73.9361C215.432 73.3898 216.209 72.8434 216.986 72.2971C217.073 72.2061 217.202 72.1605 217.288 72.0695L217.504 71.8418L217.979 71.4321C218.282 71.1589 218.584 70.8858 218.929 70.5671C220.181 69.4289 221.433 68.2907 222.729 67.107C223.376 66.5152 224.024 65.9233 224.672 65.3314C224.845 65.1949 224.974 65.0583 225.06 64.8762L225.406 64.4209C225.622 64.1477 225.881 63.8291 226.097 63.5559C227.047 62.3722 227.996 61.1885 228.946 60.0048L229.68 59.0942L230.026 58.639C230.069 58.5479 230.155 58.5024 230.199 58.4113L230.328 58.1837C230.673 57.6374 231.019 57.0455 231.364 56.4992C232.055 55.361 232.746 54.2684 233.437 53.1302L233.955 52.2652C234.084 51.992 234.214 51.7644 234.344 51.4912L235.078 49.9433C235.553 48.8962 236.071 47.849 236.546 46.8019C237.021 45.8003 237.366 44.7987 237.711 43.6605C238.402 41.4752 238.92 39.0168 238.92 35.9209V35.3291C238.92 35.147 238.877 34.9193 238.877 34.7372C238.834 34.3275 238.791 33.9632 238.748 33.508C238.705 33.0982 238.661 32.6885 238.618 32.2787C238.575 31.869 238.489 31.4593 238.445 31.004L238.359 30.3666L238.186 29.7748C238.057 29.365 237.97 28.9553 237.841 28.591C237.582 27.8171 237.323 27.0431 237.064 26.3602C236.546 24.9489 235.855 23.7652 235.25 22.718C234.603 21.6709 233.955 20.7604 233.35 19.9864C232.703 19.1669 232.098 18.4385 231.451 17.8011C231.278 17.619 231.148 17.4824 230.976 17.3003C230.803 17.1637 230.673 16.9816 230.458 16.845C230.069 16.5264 229.724 16.2532 229.335 15.9345C227.867 14.7508 226.485 13.7037 225.276 12.7021C224.629 12.2013 224.067 11.746 223.463 11.2907C223.161 11.0631 222.902 10.881 222.642 10.6533C222.513 10.5623 222.383 10.4712 222.254 10.3347C222.168 10.2891 222.124 10.2436 222.038 10.1981C221.952 10.1526 221.865 10.107 221.779 10.0615C220.311 9.42411 219.059 8.87779 218.022 8.42252L219.793 9.60622C216.036 8.24041 213.489 7.19329 211.589 6.28275C210.639 5.82748 209.905 5.41773 209.257 5.00799C209.171 4.96246 209.085 4.91693 208.998 4.8714C208.912 4.82588 208.782 4.78035 208.696 4.78035C208.48 4.6893 208.264 4.64376 208.092 4.59824C207.703 4.46166 207.314 4.32508 206.926 4.1885C203.947 3.09584 201.658 1.86661 194.577 0C194.577 0.31869 194.275 0.500799 193.757 0.682907C193.498 0.773961 193.195 0.819486 192.85 0.865013C192.505 0.91054 192.073 1.0016 191.598 1.04712C189.741 1.27476 187.237 1.36581 184.56 1.36581C181.883 1.36581 179.033 1.27476 176.443 1.18371C175.147 1.13818 173.895 1.04712 172.816 1.0016C171.65 1.0016 170.614 0.956069 169.75 0.956069L170.311 0.500798C167.677 0.455271 164.18 0.500797 160.165 0.591851C158.178 0.637378 156.063 0.682906 153.861 0.728434H153.429L152.997 0.77396C152.695 0.819487 152.436 0.819486 152.134 0.865013C151.572 0.91054 150.968 0.956068 150.406 1.04712C149.241 1.13818 148.075 1.27476 146.866 1.36581C144.491 1.59345 142.116 1.77556 139.655 2.00319C138.446 2.09425 137.237 2.23083 136.072 2.32188C134.863 2.41294 133.697 2.50399 132.488 2.6861C132.186 2.73163 131.883 2.77716 131.624 2.77716L130.804 2.91373C130.243 3.00479 129.724 3.09584 129.163 3.14137C128.386 3.27795 127.652 3.36901 126.918 3.50559C125.45 3.73322 123.982 3.91533 122.6 4.09744L122.902 2.86821C122.341 3.00479 121.737 3.14137 121.089 3.27795C120.441 3.41453 119.794 3.55111 119.103 3.68769C117.764 4.00638 116.296 4.27955 114.785 4.55271C113.274 4.82588 111.719 5.09904 110.165 5.3722C109.388 5.50879 108.567 5.64536 107.79 5.73642C107.013 5.873 106.236 6.05511 105.416 6.19169C102.307 6.78354 99.2411 7.3754 96.5641 7.8762C95.2256 8.10383 93.9735 8.42252 92.894 8.69568C91.7714 8.96884 90.8215 9.19648 90.0011 9.42412C88.1445 9.78833 86.1152 10.1981 83.9995 10.6078C83.7404 10.6534 83.4813 10.6989 83.2223 10.7444C82.9632 10.7899 82.7041 10.881 82.4019 10.9265C81.8838 11.0631 81.3224 11.1542 80.7611 11.2907C79.6817 11.5639 78.5159 11.7915 77.3933 12.0647C76.2275 12.3379 75.0617 12.611 73.8959 12.8842C73.2914 13.0208 72.6869 13.1573 72.1256 13.2939C71.5212 13.4305 70.9167 13.5671 70.3122 13.7492C67.8942 14.4321 65.4331 15.115 62.9288 15.889C61.6767 16.2532 60.4245 16.6629 59.1292 17.0271C57.8771 17.4369 56.6249 17.8922 55.3728 18.3474C52.8685 19.258 50.321 20.2141 47.8167 21.1701C47.169 21.3978 46.5645 21.6709 45.9601 21.9441C45.3556 22.2172 44.7511 22.4904 44.1034 22.7636C42.8945 23.3099 41.6855 23.9018 40.4765 24.4936C38.0586 25.6773 35.6838 26.8155 33.4818 28.1813C33.4818 28.1813 30.1139 28.9097 26.7461 29.5926C25.0621 29.9569 23.335 30.2756 22.1261 30.6398C20.8739 30.9585 20.0536 31.1861 20.0536 31.1861L18.456 32.4609C18.456 32.4609 18.4128 35.4201 18.8014 39.7907C19.2332 44.1158 20.1399 49.8067 21.9965 55.3155C22.9464 58.0471 24.0691 60.7787 25.4507 63.2827C26.8324 65.7867 28.4732 68.0175 30.373 69.8842C34.1726 73.6174 38.9221 75.8027 44.8806 75.0287L45.0533 76.258L49.0688 74.1182C51.6163 73.1621 53.3002 72.115 54.4229 71.4321C55.5455 70.7947 56.0204 70.5671 56.0636 71.1589C56.0636 71.1589 55.6318 71.341 54.9842 71.6142C54.3365 71.8874 53.5161 72.2971 52.6526 72.7068C50.9687 73.4808 49.2847 74.3003 49.2847 74.3003C54.2933 72.2061 51.1414 74.4824 49.587 75.9848C51.6595 75.0743 53.6888 74.2548 55.4591 73.7995C55.8477 73.3898 55.6318 73.3442 55.2001 73.4353C54.7683 73.5263 54.1206 73.754 53.732 73.845C54.941 72.98 56.409 71.9329 57.9634 70.9768C59.5178 69.9752 61.2449 69.1102 62.972 68.6549C63.6197 68.3818 64.0946 68.1997 64.4832 68.1086C64.8718 68.0176 65.1741 68.0176 65.3899 68.0176C65.8217 68.0631 65.9944 68.2452 66.1671 68.4273C66.5126 68.7915 66.9875 69.1557 70.0099 68.0631C71.003 67.6989 71.9961 67.3346 72.9892 67.016C73.9823 66.6517 74.9754 66.2875 76.0116 66.0144C78.041 65.4225 80.0703 64.7851 82.0565 64.1933C83.0495 63.8746 84.0858 63.5559 85.0789 63.2827L88.1445 62.5088C90.1738 62.008 92.2032 61.4616 94.2325 60.9608L95.0097 60.7787L95.7869 60.6422L97.3413 60.3235L100.407 59.6861L103.473 59.0487L104.984 58.73C105.502 58.639 106.02 58.5479 106.538 58.4569L112.713 57.4553C113.749 57.2731 114.742 57.091 115.778 56.9545L118.887 56.5902C120.959 56.3626 123.032 56.0894 125.061 55.8618C125.579 55.7708 126.098 55.7708 126.616 55.7252L128.17 55.5886L131.279 55.361L132.833 55.2244L133.222 55.1789H133.308C133.351 55.1789 133.351 55.1789 133.351 55.1789H133.395C133.438 55.1789 133.524 55.1789 133.567 55.1789H133.654H133.697H133.74H133.826L134.215 55.27C134.69 55.361 135.122 55.4065 135.683 55.361C135.165 55.8618 135.122 55.8618 134.863 56.0894C135.338 55.8618 135.683 55.7708 136.072 55.7252C136.46 55.6797 136.806 55.6342 137.669 55.4521C136.719 55.9529 135.078 56.5902 133.999 57.0455C134.56 56.8179 134.992 56.6358 135.467 56.6358C135.683 56.6358 135.856 56.6813 135.942 56.7268C136.028 56.7723 136.028 56.8634 135.985 56.9089C135.942 57.0455 135.726 57.1821 135.553 57.2732C135.597 57.1821 135.424 57.2276 135.338 57.2276Z" fill="#475467"/>
<path d="M82.7539 258.516H68.8789C66.119 258.516 63.4721 257.419 61.5206 255.468C59.569 253.516 58.4727 250.869 58.4727 248.109V185.672C58.4727 182.912 59.569 180.265 61.5206 178.314C63.4721 176.362 66.119 175.266 68.8789 175.266H82.7539C85.5138 175.266 88.1607 176.362 90.1122 178.314C92.0638 180.265 93.1602 182.912 93.1602 185.672V248.109C93.1602 250.869 92.0638 253.516 90.1122 255.468C88.1607 257.419 85.5138 258.516 82.7539 258.516Z" fill="#FDDD5D"/>
<path d="M179.879 258.516H166.004C163.244 258.516 160.597 257.419 158.646 255.468C156.694 253.516 155.598 250.869 155.598 248.109V144.047C155.598 141.287 156.694 138.64 158.646 136.689C160.597 134.737 163.244 133.641 166.004 133.641H179.879C182.639 133.641 185.286 134.737 187.237 136.689C189.189 138.64 190.285 141.287 190.285 144.047V248.109C190.285 250.869 189.189 253.516 187.237 255.468C185.286 257.419 182.639 258.516 179.879 258.516Z" fill="#FDDD5D"/>
<path d="M228.441 258.516H214.566C211.806 258.516 209.16 257.419 207.208 255.468C205.257 253.516 204.16 250.869 204.16 248.109V95.4844C204.16 92.7245 205.257 90.0776 207.208 88.126C209.16 86.1745 211.806 85.0781 214.566 85.0781H228.441C231.201 85.0781 233.848 86.1745 235.8 88.126C237.751 90.0776 238.848 92.7245 238.848 95.4844V248.109C238.848 250.869 237.751 253.516 235.8 255.468C233.848 257.419 231.201 258.516 228.441 258.516Z" fill="#FDDD5D"/>
<path d="M131.316 258.516H117.441C114.681 258.516 112.035 257.419 110.083 255.468C108.132 253.516 107.035 250.869 107.035 248.109V60.7969C107.035 58.037 108.132 55.3901 110.083 53.4385C112.035 51.487 114.681 50.3906 117.441 50.3906H131.316C134.076 50.3906 136.723 51.487 138.675 53.4385C140.626 55.3901 141.723 58.037 141.723 60.7969V248.109C141.723 250.869 140.626 253.516 138.675 255.468C136.723 257.419 134.076 258.516 131.316 258.516Z" fill="#FDDD5D"/>
</svg>