<svg xmlns:xlink="http://www.w3.org/1999/xlink" viewBox="0 0 139 33" xmlns="http://www.w3.org/2000/svg" class="css-1eep8ac" width="139"  height="33" ><path d="M45.4247 10.8646C46.7916 10.8646 47.8606 11.2805 48.6317 12.1125C49.4028 12.9444 49.7883 14.1127 49.7883 15.6173V24.4059C49.7883 24.4945 49.7532 24.5741 49.6831 24.6449C49.6306 24.698 49.5605 24.7246 49.4729 24.7246H46.3973C46.3097 24.7246 46.2309 24.698 46.1608 24.6449C46.1082 24.5741 46.0819 24.4945 46.0819 24.4059V16.4404C46.0819 15.7147 45.8979 15.1394 45.5299 14.7146C45.1619 14.2897 44.6712 14.0773 44.0578 14.0773C43.4445 14.0773 42.945 14.2897 42.5595 14.7146C42.174 15.1394 41.9812 15.7058 41.9812 16.4139V24.4059C41.9812 24.4945 41.9461 24.5741 41.876 24.6449C41.8235 24.698 41.7534 24.7246 41.6658 24.7246H38.6165C38.5289 24.7246 38.45 24.698 38.3799 24.6449C38.3274 24.5741 38.3011 24.4945 38.3011 24.4059V16.4404C38.3011 15.7324 38.1083 15.1659 37.7228 14.7411C37.3372 14.2986 36.8378 14.0773 36.2244 14.0773C35.6637 14.0773 35.1905 14.2455 34.805 14.5818C34.437 14.9181 34.2179 15.3872 34.1478 15.989V24.4059C34.1478 24.4945 34.1128 24.5741 34.0427 24.6449C33.9901 24.698 33.92 24.7246 33.8324 24.7246H30.7568C30.6692 24.7246 30.5904 24.698 30.5203 24.6449C30.4677 24.5741 30.4414 24.4945 30.4414 24.4059V11.3956C30.4414 11.3071 30.4677 11.2363 30.5203 11.1832C30.5904 11.1124 30.6692 11.077 30.7568 11.077H33.8324C33.92 11.077 33.9901 11.1124 34.0427 11.1832C34.1128 11.2363 34.1478 11.3071 34.1478 11.3956V12.4311C34.1478 12.4842 34.1653 12.5196 34.2004 12.5373C34.2354 12.555 34.2705 12.5373 34.3055 12.4842C35.024 11.4044 36.1368 10.8646 37.6439 10.8646C38.5201 10.8646 39.2824 11.0504 39.9308 11.4221C40.5968 11.7939 41.105 12.3249 41.4555 13.0153C41.508 13.1215 41.5694 13.1215 41.6395 13.0153C42.025 12.2895 42.542 11.7496 43.1904 11.3956C43.8563 11.0416 44.6011 10.8646 45.4247 10.8646ZM64.273 16.4935C64.3781 17.1662 64.4132 17.9185 64.3781 18.7504C64.3606 18.9628 64.2467 19.069 64.0364 19.069H55.9139C55.8087 19.069 55.7737 19.1133 55.8087 19.2018C55.8613 19.5558 55.9577 19.9099 56.0979 20.2639C56.5535 21.2551 57.4823 21.7508 58.8842 21.7508C60.0058 21.7331 60.8908 21.2728 61.5392 20.3701C61.6093 20.2639 61.6881 20.2108 61.7758 20.2108C61.8283 20.2108 61.8897 20.2462 61.9598 20.317L63.8524 22.2021C63.94 22.2907 63.9838 22.3703 63.9838 22.4411C63.9838 22.4765 63.9488 22.5473 63.8787 22.6535C63.3004 23.3793 62.5556 23.9457 61.6443 24.3528C60.7331 24.7423 59.7342 24.937 58.6477 24.937C57.1406 24.937 55.8613 24.5918 54.8098 23.9015C53.7759 23.2111 53.0311 22.2464 52.5755 21.0073C52.2075 20.1223 52.0234 18.9628 52.0234 17.529C52.0234 16.5555 52.1549 15.697 52.4177 14.9535C52.8208 13.6967 53.5218 12.6966 54.5207 11.9532C55.5371 11.2097 56.7375 10.838 58.1219 10.838C59.8744 10.838 61.2763 11.3513 62.3278 12.378C63.3968 13.4047 64.0452 14.7765 64.273 16.4935ZM58.1482 14.0773C57.0442 14.0773 56.3169 14.5995 55.9664 15.6439C55.8963 15.874 55.835 16.1572 55.7824 16.4935C55.7824 16.582 55.8262 16.6263 55.9139 16.6263H60.4614C60.5666 16.6263 60.6016 16.582 60.5666 16.4935C60.479 15.9802 60.4351 15.7324 60.4351 15.7501C60.2774 15.219 59.997 14.8119 59.594 14.5287C59.2084 14.2278 58.7265 14.0773 58.1482 14.0773ZM74.1089 13.7587C74.1089 13.8472 74.0739 13.9269 74.0038 13.9977C73.9512 14.0508 73.8811 14.0773 73.7935 14.0773H71.27C71.1823 14.0773 71.1385 14.1216 71.1385 14.2101V19.839C71.1385 20.4232 71.2524 20.8569 71.4803 21.1401C71.7256 21.4233 72.1111 21.5649 72.6369 21.5649H73.5043C73.5919 21.5649 73.662 21.6003 73.7146 21.6711C73.7847 21.7242 73.8198 21.795 73.8198 21.8835V24.4059C73.8198 24.6007 73.7146 24.7157 73.5043 24.7511C72.7683 24.7865 72.2426 24.8042 71.9271 24.8042C70.4726 24.8042 69.3861 24.5653 68.6676 24.0873C67.9491 23.5917 67.5811 22.6712 67.5636 21.3259V14.2101C67.5636 14.1216 67.5198 14.0773 67.4321 14.0773H65.9338C65.8462 14.0773 65.7673 14.0508 65.6972 13.9977C65.6446 13.9269 65.6184 13.8472 65.6184 13.7587V11.3956C65.6184 11.3071 65.6446 11.2363 65.6972 11.1832C65.7673 11.1124 65.8462 11.077 65.9338 11.077H67.4321C67.5198 11.077 67.5636 11.0327 67.5636 10.9442V7.78456C67.5636 7.69606 67.5899 7.62525 67.6424 7.57215C67.7125 7.50134 67.7914 7.46594 67.879 7.46594H70.8231C70.9107 7.46594 70.9808 7.50134 71.0334 7.57215C71.1035 7.62525 71.1385 7.69606 71.1385 7.78456V10.9442C71.1385 11.0327 71.1823 11.077 71.27 11.077H73.7935C73.8811 11.077 73.9512 11.1124 74.0038 11.1832C74.0739 11.2363 74.1089 11.3071 74.1089 11.3956V13.7587ZM81.7288 10.8646C82.8679 10.8646 83.8843 11.0681 84.7781 11.4753C85.6718 11.8647 86.364 12.4046 86.8547 13.0949C87.3629 13.7853 87.617 14.5553 87.617 15.4049V24.4059C87.617 24.4945 87.582 24.5741 87.5119 24.6449C87.4593 24.698 87.3892 24.7246 87.3016 24.7246H84.226C84.1384 24.7246 84.0596 24.698 83.9895 24.6449C83.9369 24.5741 83.9106 24.4945 83.9106 24.4059V23.5297C83.9106 23.4766 83.8931 23.4412 83.858 23.4235C83.823 23.4058 83.7879 23.4235 83.7529 23.4766C83.0169 24.4502 81.834 24.937 80.2042 24.937C78.8373 24.937 77.7333 24.6007 76.8921 23.928C76.0509 23.2554 75.6303 22.2641 75.6303 20.9542C75.6303 19.5912 76.1035 18.538 77.0498 17.7946C77.9961 17.0334 79.3455 16.6528 81.0979 16.6528H83.7792C83.8668 16.6528 83.9106 16.6086 83.9106 16.5201V15.9359C83.9106 15.3518 83.7354 14.9004 83.3849 14.5818C83.0344 14.2455 82.5087 14.0773 81.8077 14.0773C81.2644 14.0773 80.8088 14.1747 80.4408 14.3694C80.0903 14.5641 79.8625 14.8385 79.7573 15.1925C79.7048 15.3872 79.5908 15.4757 79.4156 15.458L76.2349 15.0332C76.0246 14.9978 75.9283 14.9181 75.9458 14.7942C76.0159 14.0508 76.305 13.3781 76.8132 12.7763C77.339 12.1744 78.0224 11.7054 78.8636 11.369C79.7223 11.0327 80.6774 10.8646 81.7288 10.8646ZM81.2031 22.149C81.9566 22.149 82.5963 21.9455 83.122 21.5384C83.6477 21.1312 83.9106 20.609 83.9106 19.9718V19.0159C83.9106 18.9274 83.8668 18.8832 83.7792 18.8832H81.8865C81.0979 18.8832 80.4758 19.0336 80.0202 19.3346C79.5821 19.6355 79.363 20.0603 79.363 20.609C79.363 21.087 79.5295 21.4676 79.8625 21.7508C80.1954 22.0163 80.6423 22.149 81.2031 22.149Z" fill="#344054"></path><path d="M105.211 10.8646C106.578 10.8646 107.647 11.2806 108.418 12.1126C109.189 12.9445 109.575 14.1128 109.575 15.6174V24.406C109.575 24.4945 109.54 24.5742 109.47 24.645C109.417 24.6981 109.347 24.7246 109.259 24.7246H106.184C106.096 24.7246 106.017 24.6981 105.947 24.645C105.895 24.5742 105.868 24.4945 105.868 24.406V16.4405C105.868 15.7147 105.684 15.1395 105.316 14.7146C104.948 14.2898 104.458 14.0774 103.844 14.0774C103.231 14.0774 102.731 14.2898 102.346 14.7146C101.96 15.1395 101.768 15.7059 101.768 16.4139V24.406C101.768 24.4945 101.733 24.5742 101.662 24.645C101.61 24.6981 101.54 24.7246 101.452 24.7246H98.4029C98.3153 24.7246 98.2364 24.6981 98.1663 24.645C98.1137 24.5742 98.0875 24.4945 98.0875 24.406V16.4405C98.0875 15.7324 97.8947 15.166 97.5092 14.7412C97.1236 14.2986 96.6242 14.0774 96.0108 14.0774C95.45 14.0774 94.9769 14.2455 94.5913 14.5819C94.2233 14.9182 94.0043 15.3873 93.9342 15.9891V24.406C93.9342 24.4945 93.8991 24.5742 93.829 24.645C93.7765 24.6981 93.7064 24.7246 93.6187 24.7246H90.5432C90.4556 24.7246 90.3767 24.6981 90.3066 24.645C90.2541 24.5742 90.2278 24.4945 90.2278 24.406V11.3957C90.2278 11.3072 90.2541 11.2363 90.3066 11.1832C90.3767 11.1124 90.4556 11.077 90.5432 11.077H93.6187C93.7064 11.077 93.7765 11.1124 93.829 11.1832C93.8991 11.2363 93.9342 11.3072 93.9342 11.3957V12.4312C93.9342 12.4843 93.9517 12.5197 93.9868 12.5374C94.0218 12.5551 94.0569 12.5374 94.0919 12.4843C94.8104 11.4045 95.9232 10.8646 97.4303 10.8646C98.3065 10.8646 99.0688 11.0505 99.7172 11.4222C100.383 11.7939 100.891 12.325 101.242 13.0153C101.294 13.1215 101.356 13.1215 101.426 13.0153C101.811 12.2896 102.328 11.7497 102.977 11.3957C103.643 11.0416 104.387 10.8646 105.211 10.8646ZM117.565 10.8646C118.704 10.8646 119.72 11.0682 120.614 11.4753C121.508 11.8647 122.2 12.4046 122.691 13.095C123.199 13.7853 123.453 14.5553 123.453 15.405V24.406C123.453 24.4945 123.418 24.5742 123.348 24.645C123.295 24.6981 123.225 24.7246 123.138 24.7246H120.062C119.975 24.7246 119.896 24.6981 119.826 24.645C119.773 24.5742 119.747 24.4945 119.747 24.406V23.5298C119.747 23.4767 119.729 23.4413 119.694 23.4236C119.659 23.4059 119.624 23.4236 119.589 23.4767C118.853 24.4503 117.67 24.937 116.04 24.937C114.673 24.937 113.569 24.6007 112.728 23.9281C111.887 23.2554 111.467 22.2642 111.467 20.9543C111.467 19.5913 111.94 18.5381 112.886 17.7946C113.832 17.0335 115.182 16.6529 116.934 16.6529H119.615C119.703 16.6529 119.747 16.6086 119.747 16.5201V15.936C119.747 15.3519 119.572 14.9005 119.221 14.5819C118.871 14.2455 118.345 14.0774 117.644 14.0774C117.101 14.0774 116.645 14.1747 116.277 14.3695C115.926 14.5642 115.699 14.8385 115.593 15.1926C115.541 15.3873 115.427 15.4758 115.252 15.4581L112.071 15.0332C111.861 14.9978 111.764 14.9182 111.782 14.7943C111.852 14.0508 112.141 13.3782 112.649 12.7763C113.175 12.1745 113.859 11.7054 114.7 11.3691C115.558 11.0328 116.514 10.8646 117.565 10.8646ZM117.039 22.1491C117.793 22.1491 118.432 21.9455 118.958 21.5384C119.484 21.1313 119.747 20.6091 119.747 19.9719V19.016C119.747 18.9275 119.703 18.8832 119.615 18.8832H117.723C116.934 18.8832 116.312 19.0337 115.856 19.3346C115.418 19.6355 115.199 20.0604 115.199 20.6091C115.199 21.087 115.366 21.4676 115.699 21.7508C116.032 22.0163 116.478 22.1491 117.039 22.1491ZM125.538 24.7246C125.416 24.7246 125.328 24.6892 125.275 24.6184C125.24 24.5299 125.258 24.4326 125.328 24.3263L129.56 17.9805C129.595 17.9274 129.595 17.8743 129.56 17.8212L125.328 11.4753C125.293 11.4045 125.275 11.3426 125.275 11.2895C125.275 11.1478 125.363 11.077 125.538 11.077H128.824C128.982 11.077 129.104 11.1478 129.192 11.2895L131.558 14.927C131.628 15.0332 131.689 15.0332 131.742 14.927L134.108 11.2895C134.195 11.1478 134.318 11.077 134.476 11.077H137.998C138.121 11.077 138.2 11.1213 138.235 11.2098C138.27 11.2806 138.252 11.3691 138.182 11.4753L133.976 17.8212C133.959 17.8743 133.959 17.9274 133.976 17.9805L138.182 24.3263C138.217 24.3795 138.235 24.4414 138.235 24.5122C138.235 24.6538 138.156 24.7246 137.998 24.7246H134.686C134.528 24.7246 134.405 24.6538 134.318 24.5122L131.952 20.8746C131.9 20.7684 131.847 20.7684 131.794 20.8746L129.429 24.5122C129.341 24.6538 129.218 24.7246 129.061 24.7246H125.538Z" fill="url(&quot;#paint0_linear_1998_24959&quot;)"></path><path d="M105.211 10.8646C106.578 10.8646 107.647 11.2806 108.418 12.1126C109.189 12.9445 109.575 14.1128 109.575 15.6174V24.406C109.575 24.4945 109.54 24.5742 109.47 24.645C109.417 24.6981 109.347 24.7246 109.259 24.7246H106.184C106.096 24.7246 106.017 24.6981 105.947 24.645C105.895 24.5742 105.868 24.4945 105.868 24.406V16.4405C105.868 15.7147 105.684 15.1395 105.316 14.7146C104.948 14.2898 104.458 14.0774 103.844 14.0774C103.231 14.0774 102.731 14.2898 102.346 14.7146C101.96 15.1395 101.768 15.7059 101.768 16.4139V24.406C101.768 24.4945 101.733 24.5742 101.662 24.645C101.61 24.6981 101.54 24.7246 101.452 24.7246H98.4029C98.3153 24.7246 98.2364 24.6981 98.1663 24.645C98.1137 24.5742 98.0875 24.4945 98.0875 24.406V16.4405C98.0875 15.7324 97.8947 15.166 97.5092 14.7412C97.1236 14.2986 96.6242 14.0774 96.0108 14.0774C95.45 14.0774 94.9769 14.2455 94.5913 14.5819C94.2233 14.9182 94.0043 15.3873 93.9342 15.9891V24.406C93.9342 24.4945 93.8991 24.5742 93.829 24.645C93.7765 24.6981 93.7064 24.7246 93.6187 24.7246H90.5432C90.4556 24.7246 90.3767 24.6981 90.3066 24.645C90.2541 24.5742 90.2278 24.4945 90.2278 24.406V11.3957C90.2278 11.3072 90.2541 11.2363 90.3066 11.1832C90.3767 11.1124 90.4556 11.077 90.5432 11.077H93.6187C93.7064 11.077 93.7765 11.1124 93.829 11.1832C93.8991 11.2363 93.9342 11.3072 93.9342 11.3957V12.4312C93.9342 12.4843 93.9517 12.5197 93.9868 12.5374C94.0218 12.5551 94.0569 12.5374 94.0919 12.4843C94.8104 11.4045 95.9232 10.8646 97.4303 10.8646C98.3065 10.8646 99.0688 11.0505 99.7172 11.4222C100.383 11.7939 100.891 12.325 101.242 13.0153C101.294 13.1215 101.356 13.1215 101.426 13.0153C101.811 12.2896 102.328 11.7497 102.977 11.3957C103.643 11.0416 104.387 10.8646 105.211 10.8646ZM117.565 10.8646C118.704 10.8646 119.72 11.0682 120.614 11.4753C121.508 11.8647 122.2 12.4046 122.691 13.095C123.199 13.7853 123.453 14.5553 123.453 15.405V24.406C123.453 24.4945 123.418 24.5742 123.348 24.645C123.295 24.6981 123.225 24.7246 123.138 24.7246H120.062C119.975 24.7246 119.896 24.6981 119.826 24.645C119.773 24.5742 119.747 24.4945 119.747 24.406V23.5298C119.747 23.4767 119.729 23.4413 119.694 23.4236C119.659 23.4059 119.624 23.4236 119.589 23.4767C118.853 24.4503 117.67 24.937 116.04 24.937C114.673 24.937 113.569 24.6007 112.728 23.9281C111.887 23.2554 111.467 22.2642 111.467 20.9543C111.467 19.5913 111.94 18.5381 112.886 17.7946C113.832 17.0335 115.182 16.6529 116.934 16.6529H119.615C119.703 16.6529 119.747 16.6086 119.747 16.5201V15.936C119.747 15.3519 119.572 14.9005 119.221 14.5819C118.871 14.2455 118.345 14.0774 117.644 14.0774C117.101 14.0774 116.645 14.1747 116.277 14.3695C115.926 14.5642 115.699 14.8385 115.593 15.1926C115.541 15.3873 115.427 15.4758 115.252 15.4581L112.071 15.0332C111.861 14.9978 111.764 14.9182 111.782 14.7943C111.852 14.0508 112.141 13.3782 112.649 12.7763C113.175 12.1745 113.859 11.7054 114.7 11.3691C115.558 11.0328 116.514 10.8646 117.565 10.8646ZM117.039 22.1491C117.793 22.1491 118.432 21.9455 118.958 21.5384C119.484 21.1313 119.747 20.6091 119.747 19.9719V19.016C119.747 18.9275 119.703 18.8832 119.615 18.8832H117.723C116.934 18.8832 116.312 19.0337 115.856 19.3346C115.418 19.6355 115.199 20.0604 115.199 20.6091C115.199 21.087 115.366 21.4676 115.699 21.7508C116.032 22.0163 116.478 22.1491 117.039 22.1491ZM125.538 24.7246C125.416 24.7246 125.328 24.6892 125.275 24.6184C125.24 24.5299 125.258 24.4326 125.328 24.3263L129.56 17.9805C129.595 17.9274 129.595 17.8743 129.56 17.8212L125.328 11.4753C125.293 11.4045 125.275 11.3426 125.275 11.2895C125.275 11.1478 125.363 11.077 125.538 11.077H128.824C128.982 11.077 129.104 11.1478 129.192 11.2895L131.558 14.927C131.628 15.0332 131.689 15.0332 131.742 14.927L134.108 11.2895C134.195 11.1478 134.318 11.077 134.476 11.077H137.998C138.121 11.077 138.2 11.1213 138.235 11.2098C138.27 11.2806 138.252 11.3691 138.182 11.4753L133.976 17.8212C133.959 17.8743 133.959 17.9274 133.976 17.9805L138.182 24.3263C138.217 24.3795 138.235 24.4414 138.235 24.5122C138.235 24.6538 138.156 24.7246 137.998 24.7246H134.686C134.528 24.7246 134.405 24.6538 134.318 24.5122L131.952 20.8746C131.9 20.7684 131.847 20.7684 131.794 20.8746L129.429 24.5122C129.341 24.6538 129.218 24.7246 129.061 24.7246H125.538Z" fill="#FCD535"></path><path d="M10.8968 13.8166C10.7552 13.5689 10.4013 13.5689 10.2597 13.8166L5.57916 22.0031C5.43753 22.2508 5.61448 22.5605 5.8977 22.5605H8.33908C8.47051 22.5605 8.59191 22.4897 8.65767 22.3748L12.1175 16.3233C12.1833 16.2083 12.1833 16.0667 12.1175 15.9516L10.8968 13.8166Z" fill="#FCD535"></path><path d="M14.5478 13.8166C14.6894 13.5689 15.0433 13.5689 15.1849 13.8166L16.4056 15.9516C16.4713 16.0667 16.4713 16.2083 16.4056 16.3233L12.9457 22.3748C12.88 22.4897 12.7586 22.5605 12.6272 22.5605H10.1858C9.90257 22.5605 9.72561 22.2508 9.86724 22.0031L14.5478 13.8166Z" fill="#FCD535"></path><path d="M20.6928 15.9516C20.7585 16.0667 20.7585 16.2083 20.6928 16.3233L17.2329 22.3748C17.1672 22.4897 17.0457 22.5605 16.9143 22.5605H14.4729C14.1897 22.5605 14.0127 22.2508 14.1543 22.0031L18.835 13.8166C18.9766 13.5689 19.3305 13.5689 19.4721 13.8166L20.6928 15.9516Z" fill="#FCD535"></path><path fill-rule="evenodd" clip-rule="evenodd" d="M12.1101 3.24889C12.6792 2.91704 13.3803 2.91704 13.9494 3.24889L25.1398 9.77486C25.7089 10.1068 26.0595 10.7201 26.0595 11.3839V24.4358C26.0595 25.0996 25.7089 25.7129 25.1398 26.0448L13.9494 32.5708C13.3803 32.9027 12.6792 32.9027 12.1101 32.5708L0.91965 26.0448C0.35057 25.7129 0 25.0996 0 24.4358V11.3839C0 10.7201 0.35057 10.1068 0.91965 9.77486L12.1101 3.24889ZM12.11 7.81603C12.679 7.48413 13.3802 7.48413 13.9493 7.81603L21.2237 12.0582C21.7927 12.3901 22.1433 13.0034 22.1433 13.6672V22.1517C22.1433 22.8155 21.7927 23.4288 21.2237 23.7607L13.9493 28.0029C13.3802 28.3348 12.679 28.3348 12.11 28.0029L4.83557 23.7607C4.2665 23.4288 3.91592 22.8155 3.91592 22.1517V13.6672C3.91592 13.0034 4.2665 12.3901 4.83557 12.0582L12.11 7.81603Z" fill="#FCD535"></path><defs><linearGradient id="paint0_linear_1998_24959" x1="29.0745" y1="-1.8271" x2="116.366" y2="61.2684" gradientUnits="userSpaceOnUse"><stop stop-color="#FCD535"></stop><stop offset="1" stop-color="#FCB835"></stop></linearGradient><linearGradient id="paint1_linear_1998_24959" x1="3.85666e-05" y1="3.00019" x2="30.4885" y2="8.56824" gradientUnits="userSpaceOnUse"><stop stop-color="#FCD535"></stop><stop offset="1" stop-color="#FCB835"></stop></linearGradient><linearGradient id="paint2_linear_1998_24959" x1="-6.87643e-06" y1="3.00019" x2="30.4885" y2="8.56824" gradientUnits="userSpaceOnUse"><stop stop-color="#FCD535"></stop><stop offset="1" stop-color="#FCB835"></stop></linearGradient><linearGradient id="paint3_linear_1998_24959" x1="-0.000236288" y1="3.00019" x2="30.4883" y2="8.56824" gradientUnits="userSpaceOnUse"><stop stop-color="#FCD535"></stop><stop offset="1" stop-color="#FCB835"></stop></linearGradient><linearGradient id="paint4_linear_1998_24959" x1="-1.01274e-07" y1="2.99999" x2="30.4885" y2="8.56803" gradientUnits="userSpaceOnUse"><stop stop-color="#FCD535"></stop><stop offset="1" stop-color="#FCB835"></stop></linearGradient><linearGradient id="paint0_linear_1998_24959" x1="29.0745" y1="-1.8271" x2="116.366" y2="61.2684" gradientUnits="userSpaceOnUse"><stop stop-color="#FCD535"></stop><stop offset="1" stop-color="#FCB835"></stop></linearGradient><linearGradient id="paint0_linear_1998_24959" x1="29.0745" y1="-1.8271" x2="116.366" y2="61.2684" gradientUnits="userSpaceOnUse"><stop stop-color="#FCD535"></stop><stop offset="1" stop-color="#FCB835"></stop></linearGradient></defs></svg>