<svg xmlns:xlink="http://www.w3.org/1999/xlink" xmlns="http://www.w3.org/2000/svg" width="246" height="246" viewBox="0 0 246 246" fill="none">
<path d="M114.601 183.377C114.601 183.377 114.248 183.914 113.894 184.452C113.541 184.989 113.187 185.527 113.187 185.527C112.79 185.478 113.232 184.843 113.673 184.305C114.071 183.768 114.513 183.279 114.159 183.474C112.701 184.891 112.436 184.696 112.569 184.354C112.657 184.012 113.143 183.621 111.994 184.11C112.304 183.963 112.304 183.67 113.629 183.084C112.48 183.572 112.304 183.523 112.392 183.426C112.436 183.328 112.746 183.132 112.436 183.181C111.774 183.328 111.729 183.426 111.022 183.719C111.022 183.719 110.801 183.67 110.581 183.572C110.36 183.474 110.183 183.377 110.183 183.377C110.978 182.986 112.348 182.79 112.569 182.888C112.79 182.644 113.276 182.253 113.718 182.057C113.938 181.96 114.159 181.862 114.38 181.813C114.469 181.813 114.557 181.764 114.645 181.764C114.69 181.764 114.734 181.764 114.778 181.764C114.778 181.764 114.778 181.764 114.822 181.764L115.352 181.324L116.501 180.347C119.682 177.758 123.128 175.168 126.663 172.627C130.198 170.086 133.821 167.545 137.223 165.151C138.769 164.027 140.315 162.952 141.773 161.926C143.408 160.753 144.999 159.63 146.501 158.555C149.55 156.356 152.333 154.255 154.896 152.349C156.133 151.372 157.326 150.444 158.474 149.564C159.623 148.685 160.595 147.805 161.567 147.023C162.539 146.193 163.423 145.46 164.218 144.776C165.013 144.043 165.72 143.407 166.383 142.821C165.411 143.212 164.307 143.896 163.158 144.727C161.965 145.508 160.728 146.437 159.446 147.365C158.209 148.294 156.884 149.124 155.647 149.808C154.41 150.492 153.217 150.981 152.2 151.128C154.675 148.489 156.884 146.925 158.607 145.606C159.491 144.971 160.286 144.385 160.904 143.798C161.567 143.212 162.053 142.626 162.362 141.942C163.555 141.942 165.013 141.306 166.516 140.329C168.018 139.352 169.653 137.984 171.287 136.616C172.083 135.931 172.922 135.199 173.762 134.466C174.159 134.124 174.601 133.782 175.043 133.439C175.485 133.097 175.882 132.755 176.28 132.413C177.119 131.778 177.959 131.143 178.798 130.654C179.24 130.41 179.682 130.166 180.08 129.921C180.521 129.677 180.919 129.482 181.361 129.335C181.361 129.335 181.228 128.846 181.096 128.309C180.963 127.82 180.787 127.332 180.787 127.332C180.787 127.332 181.67 126.794 182.554 126.257C182.996 125.964 183.438 125.719 183.747 125.524C184.056 125.328 184.277 125.182 184.277 125.182C188.695 119.514 190.683 116.435 191.921 114.579C193.114 112.771 193.511 112.184 193.909 111.745C194.306 111.256 194.704 110.914 195.941 109.399C196.56 108.666 197.355 107.64 198.46 106.174C199.034 105.441 199.608 104.611 200.315 103.682C200.669 103.194 201.022 102.705 201.42 102.168C201.817 101.63 202.171 101.044 202.569 100.458C206.015 94.8384 207.34 90.8317 208.401 87.6068C208.931 85.9454 209.328 84.5284 209.903 83.0626C210.168 82.3296 210.433 81.6456 210.787 80.9126C210.963 80.5706 211.14 80.1797 211.317 79.8377C211.493 79.4468 211.714 79.1047 211.891 78.7138C211.714 79.1536 211.052 80.0331 210.477 80.4729C209.903 80.9126 209.505 80.9126 209.77 79.6422C210.301 79.3979 210.654 78.8604 210.919 78.1763C211.052 77.8343 211.184 77.4434 211.273 77.0037C211.361 76.6128 211.449 76.173 211.538 75.7332C211.626 75.2935 211.714 74.8537 211.803 74.414C211.891 73.9742 211.979 73.5833 212.112 73.1924C212.377 72.4106 212.731 71.7265 213.349 71.2379C213.614 70.0164 214.454 67.3778 214.586 65.521C214.807 63.6643 214.542 62.5405 212.996 64.3972C213.172 64.2018 213.349 63.9086 213.526 63.6154C213.879 62.9802 214.233 62.1984 214.586 61.4166C214.94 60.6348 215.205 59.8042 215.514 59.2178C215.779 58.5826 216 58.1917 216.177 58.094C216.354 58.0451 216.53 58.2894 216.619 59.169C217.06 56.7747 217.591 54.3316 217.149 52.8657C217.149 52.8657 216.972 53.6964 216.751 54.527C216.53 55.3577 216.309 56.1884 216.309 56.1884C216.53 52.2794 216.84 49.1033 216.707 46.3671C216.574 43.6308 216.044 41.3342 214.586 39.3309C214.586 39.3309 214.586 40.1616 214.542 40.9922C214.498 41.8229 214.454 42.6535 214.454 42.6535C213.968 40.357 213.437 38.3537 212.907 36.3992C212.421 34.4447 211.935 32.5391 212.156 30.9755C212.156 30.9755 212.377 31.2686 212.686 31.7573C212.996 32.197 213.393 32.8322 213.791 33.4674C214.542 34.689 215.116 35.8128 215.116 35.8128C214.763 34.8356 214.321 33.8583 213.835 32.8811C213.349 31.9038 212.819 30.9755 212.289 30.1448C211.184 28.4346 210.124 27.1642 209.108 26.187C208.091 25.1609 207.075 24.3791 205.971 23.695C205.44 23.353 204.866 23.0109 204.248 22.6689C203.629 22.3757 203.01 22.0825 202.348 21.8382L203.85 22.9621C203.408 22.8155 202.834 22.62 202.215 22.3269C201.906 22.1803 201.552 22.0337 201.199 21.8871C200.845 21.7405 200.448 21.5939 200.05 21.4473C198.46 20.8121 196.516 20.1769 194.351 19.6883C193.82 19.5417 193.246 19.444 192.672 19.2974C192.097 19.1997 191.523 19.102 190.904 19.0042C189.711 18.7599 188.43 18.711 187.149 18.5645C184.542 18.4179 181.759 18.369 178.843 18.6133C175.927 18.8088 172.834 19.2974 169.741 19.8837C168.15 20.1769 166.648 20.4701 165.013 20.9098C164.218 21.1053 163.423 21.3007 162.672 21.4962C161.876 21.7405 161.081 21.936 160.286 22.1803C159.888 22.278 159.535 22.4246 159.137 22.5223C158.96 22.5712 158.784 22.62 158.563 22.6689C158.386 22.7178 158.165 22.8155 157.988 22.8643C157.193 23.1086 156.442 23.353 155.735 23.5973C155.382 23.7439 155.028 23.8416 154.675 23.9882C154.498 24.037 154.321 24.1348 154.145 24.1836C153.968 24.2325 153.791 24.3302 153.614 24.3791C152.907 24.6723 152.2 24.9166 151.538 25.2097C150.875 25.5029 150.256 25.7472 149.638 25.9915C149.329 26.1381 149.064 26.2358 148.798 26.3824C148.666 26.4313 148.533 26.4802 148.401 26.5779C148.268 26.6267 148.136 26.7244 147.959 26.7733C146.854 27.3108 145.927 27.7994 145.131 28.2392C145.131 28.2392 145.971 28.4346 146.81 28.6301C146.899 28.679 147.031 28.6789 147.119 28.7278C147.208 28.7767 147.296 28.7767 147.385 28.8255C147.561 28.8744 147.694 28.9721 147.871 29.021C148.136 29.1187 148.312 29.2164 148.312 29.2164C148.312 29.2164 147.738 29.4608 146.899 29.8517C146.678 29.9494 146.457 30.0471 146.236 30.1937C145.971 30.3402 145.706 30.438 145.441 30.5846C144.866 30.8778 144.292 31.1709 143.717 31.4641C142.569 32.0504 141.376 32.6368 140.492 33.0765C139.564 33.5652 138.99 33.9072 138.99 33.9072C139.255 33.8095 139.874 33.2231 140.669 32.3436C141.508 31.4641 142.436 30.3891 143.408 29.363C145.352 27.262 147.296 25.2586 147.517 25.5029C146.899 25.6984 146.236 25.9427 145.485 26.187C145.087 26.3336 144.689 26.4313 144.292 26.5779C144.071 26.6267 143.894 26.7244 143.673 26.7733C143.452 26.871 143.231 26.9688 142.966 27.0176C141.994 27.3597 140.978 27.7994 139.874 28.1903C139.343 28.3858 138.769 28.6301 138.15 28.8255C137.841 28.9233 137.576 29.021 137.267 29.1676C136.958 29.3142 136.648 29.4607 136.295 29.5585C131.17 31.6595 124.719 34.7379 117.694 38.0605C110.669 41.2854 103.202 44.3149 95.426 46.5625C94.4539 46.8557 93.4377 47.1489 92.4657 47.442C91.8472 47.5886 91.2286 47.7352 90.6101 47.9307C90.124 48.0772 89.6381 48.175 89.1079 48.3216C88.6219 48.4193 88.0917 48.5659 87.6056 48.6636C87.1196 48.7613 86.5894 48.9079 86.1034 49.0056C85.6174 49.1034 85.0872 49.2011 84.6012 49.2988C83.585 49.4943 82.613 49.6897 81.5968 49.8363C77.6204 50.4715 73.644 50.8135 69.9768 50.8624C69.049 50.8624 68.1653 50.8624 67.2375 50.8624C66.3539 50.8135 65.4702 50.7647 64.6307 50.7647C63.7913 50.667 62.9518 50.6181 62.1123 50.5204C61.2729 50.4715 60.5218 50.3249 59.7265 50.2272C56.6337 49.7874 53.9386 49.2011 51.8178 48.517C51.2876 48.3704 50.7574 48.2238 50.3156 48.0773C49.8738 47.8818 49.432 47.7352 49.0343 47.5886C48.239 47.2955 47.5763 47.0023 47.0903 46.758C45.5881 45.683 45.6323 45.0478 46.0741 44.608C46.5159 44.1683 47.3112 43.924 47.3554 43.8262C46.3392 43.6308 45.7206 43.5819 45.2788 43.5819C44.837 43.5819 44.616 43.6796 44.3509 43.7774C44.13 43.8751 43.9091 43.924 43.5998 43.8751C43.4231 43.8751 43.2022 43.8262 42.9371 43.7285C42.672 43.6308 42.3627 43.4842 42.0093 43.2399C41.2582 42.5558 42.672 42.1161 43.2022 42.1649C42.4953 41.9206 41.9209 41.5297 41.4349 41.2854C40.9489 41.0411 40.6396 40.8945 40.4187 41.1877C41.0815 41.9206 41.1256 42.6047 40.9489 43.3865C40.7722 44.1194 40.4629 44.9012 40.5954 45.683C40.5954 45.683 40.3303 45.5364 39.9327 45.341C39.5351 45.1455 39.0491 44.8523 38.563 44.5103C38.077 44.2171 37.591 43.924 37.1934 43.6797C36.8399 43.4353 36.619 43.2888 36.619 43.2888L37.3701 42.2626C36.9725 41.9695 36.0446 42.4092 34.7192 42.5558C33.4821 42.6047 31.8031 42.3604 30.2125 40.6013C28.5778 39.1355 27.2081 37.6696 26.2361 36.4481C26.1036 36.3015 26.0152 36.2037 25.9268 36.0571C25.8385 35.9594 25.7501 35.8129 25.6617 35.7151C25.485 35.4708 25.3083 35.2265 25.1757 34.9822C24.8665 34.4936 24.5572 33.9561 24.2921 33.4186C23.8945 32.5879 23.6294 31.6596 23.4084 30.7312L23.2759 30.0471C23.2317 29.7051 23.1875 29.4119 23.1433 29.021C23.0992 28.679 23.055 28.2881 23.055 27.8972L23.0108 27.3108L22.9666 26.6756C23.6735 26.7245 24.2037 28.2392 24.8223 29.3142C24.7339 28.5812 24.3804 27.3108 24.8223 26.3336C24.2921 27.262 23.9828 26.5779 23.8503 25.6984C23.8061 25.5029 23.7619 25.2586 23.7177 25.0631C23.6735 24.8677 23.6735 24.6723 23.6294 24.5257C23.5852 24.2814 23.4968 24.2325 23.3642 24.6234C22.569 23.1575 22.1713 21.3008 22.0388 19.2486C21.9946 18.7599 21.9504 18.2225 21.9504 17.6361C21.9504 17.0986 21.9504 16.5611 21.9504 15.9748C21.9504 14.8998 21.9946 13.776 22.0388 12.701C22.2597 8.35228 22.7015 4.15013 22.0388 0.583191C21.4202 0.387743 18.4158 -0.931525 14.2185 -2.88601C10.0653 -4.8405 4.71922 -7.47906 -0.582687 -10.2153C-5.88459 -12.9516 -11.1865 -15.8834 -15.3396 -18.131C-19.4928 -20.3787 -22.453 -22.04 -23.2483 -22.1377C-22.8065 -24.7274 -22.3647 -27.2683 -22.0112 -28.0012C-22.8507 -27.4637 -23.9552 -22.4798 -23.9111 -19.6946L-22.3205 -18.9617C-22.453 -15.8345 -22.7181 -15.4925 -23.0716 -15.1993C-23.425 -14.9061 -23.8227 -14.613 -24.0878 -11.5835C-25.4574 -11.4369 -25.1482 -17.1049 -24.5738 -22.04C-25.3691 -17.6424 -26.8271 -13.2937 -25.5458 -11.2903C-26.5178 -7.13703 -27.1364 -11.9744 -28.1968 -6.9416C-28.1526 -3.22807 -27.1806 1.6093 -28.1968 5.71373L-28.4177 5.616C-28.9037 8.15683 -29.0362 10.4045 -28.992 12.4567C-28.992 13.4828 -28.9037 14.5089 -28.8153 15.4862C-28.7269 16.4634 -28.6386 17.3918 -28.506 18.4179C-28.3735 19.444 -28.2851 20.4701 -28.1526 21.4962C-28.02 22.5712 -27.9316 23.6462 -27.8433 24.8677C-27.6665 27.2131 -27.6224 29.8028 -27.6666 33.0277L-28.2409 31.7084C-28.4618 33.9561 -28.0642 37.3276 -27.2247 41.6763C-26.2969 46.4159 -24.7947 51.5465 -23.2483 56.4816C-23.646 55.0646 -23.8668 53.6475 -23.6459 53.3055C-23.425 52.9635 -22.8948 53.6964 -21.7019 56.4816C-21.3926 57.3611 -21.0833 58.2406 -20.7741 59.0713C-18.8742 63.762 -16.5326 67.4756 -14.2351 70.7005C-13.6607 71.4823 -13.0863 72.3129 -12.4678 73.0458C-11.8934 73.7788 -11.319 74.5606 -10.7447 75.2935C-9.68428 76.6616 -8.71224 77.9321 -7.74023 79.3002C-7.74023 79.3002 -7.38677 79.5445 -6.85658 79.8377C-6.32639 80.1797 -5.66365 80.5706 -4.95673 81.0104C-4.29399 81.4013 -3.58707 81.7922 -3.10106 82.0853C-2.61505 82.3297 -2.26161 82.5251 -2.26161 82.5251C-0.891951 83.7955 0.742802 85.0659 2.59847 86.5318C3.08448 86.8738 3.5263 87.2647 4.05649 87.6556C4.54249 87.9977 5.07268 88.3886 5.60287 88.7795C6.66325 89.5124 7.76783 90.3431 8.96076 91.076C13.6883 94.2032 19.432 97.2815 25.8385 99.8712C32.245 102.461 39.27 104.562 46.6043 105.881C53.9386 107.249 61.4938 107.836 68.9606 107.738C76.5158 107.64 83.7618 106.858 90.5659 105.637C93.9679 105.002 97.2375 104.318 100.374 103.536C101.17 103.34 101.921 103.145 102.716 102.95L103.025 102.852L103.114 102.852L103.158 102.852L103.114 102.852L102.937 102.901L102.849 102.901C102.804 102.901 102.849 102.901 102.849 102.901L102.893 102.901L102.981 102.852C103.114 102.803 103.246 102.705 103.379 102.656C104.395 102.119 105.411 101.532 105.986 101.239L105.765 101.581C106.472 101.142 107.355 100.604 108.327 100.018C109.343 99.4314 110.492 98.8451 111.818 98.4053C112.48 98.2099 113.187 98.0144 113.938 97.9655C114.292 97.9167 114.69 97.9167 115.087 97.9655C115.441 98.0144 115.75 98.3076 115.838 98.6008C116.015 99.1871 116.015 99.7246 116.015 100.262C116.015 100.8 115.971 101.288 115.882 101.728C115.706 102.754 115.529 103.585 115.529 104.367C113.938 104.953 113.187 105.344 112.613 105.735C112.083 106.077 111.729 106.419 111.155 106.663C111.729 106.516 112.436 106.468 112.922 106.468C113.408 106.468 113.673 106.614 113.452 106.761C112.304 107.787 112.569 107.836 113.011 107.933C113.408 108.031 114.027 108.178 112.966 109.448C112.525 110.23 111.155 111.5 109.343 112.82C108.902 113.162 108.416 113.504 107.885 113.846C105.941 115.214 103.953 116.631 101.921 118.048C97.5909 121.126 92.9517 124.449 88.3126 128.065C85.9709 129.873 83.6292 131.729 81.2876 133.733L80.4039 134.466L80.1388 134.661L79.8295 134.954L79.1668 135.541C78.3273 136.322 77.4437 137.055 76.6042 137.837C75.7647 138.619 74.9253 139.401 74.13 140.183C73.3347 140.964 72.451 141.746 71.6999 142.577C65.3377 148.978 59.859 155.672 55.6175 162.024C55.1315 162.806 54.6013 163.636 54.1153 164.418C53.8502 164.809 53.6293 165.2 53.3642 165.591C53.1433 165.982 52.8782 166.373 52.6573 166.764C52.2596 167.545 51.8178 168.327 51.4202 169.06C51.1992 169.451 51.0225 169.793 50.8016 170.184L50.4923 170.721L50.2272 171.259C49.5645 172.725 48.8576 174.142 48.2832 175.559C48.0181 176.243 47.7088 176.927 47.4879 177.611C47.267 178.295 47.0019 178.93 46.781 179.565C45.9415 182.155 45.323 184.501 44.837 186.602C44.6603 187.677 44.4393 188.654 44.3068 189.582C44.2184 190.022 44.1742 190.511 44.0859 190.901C44.0417 191.341 43.9975 191.732 43.9533 192.123C44.2184 195.348 44.4835 198.817 45.1462 202.433C45.323 203.312 45.4997 204.241 45.7206 205.169C45.8532 205.609 45.9415 206.098 46.0299 206.537C46.1624 206.977 46.295 207.417 46.4275 207.906C46.9577 209.713 47.5763 211.521 48.3274 213.231C49.0785 214.942 49.8738 216.603 50.8016 218.167C51.7295 219.681 52.7457 221.147 53.806 222.466C55.9268 225.105 58.3568 227.255 60.9194 228.965L59.5939 228.525C60.8752 229.503 62.9076 231.115 65.6911 232.874C66.0446 233.118 66.3981 233.314 66.7957 233.558C67.1933 233.754 67.5468 234.047 67.9886 234.242C68.8281 234.682 69.7559 235.122 70.6838 235.562C71.6116 236.001 72.5836 236.49 73.5556 236.979C74.0416 237.223 74.5718 237.467 75.0578 237.711C75.1904 237.76 75.3229 237.858 75.4555 237.907L75.8973 238.053C76.1624 238.151 76.4717 238.249 76.7809 238.347C85.7942 241.914 98.1653 244.699 110.978 245.285C112.569 245.432 114.204 245.383 115.706 245.383C116.81 245.383 117.915 245.383 119.019 245.383C121.229 245.285 123.394 245.187 125.558 245.09C127.679 244.894 129.8 244.65 131.788 244.454C133.821 244.21 135.765 243.868 137.62 243.526C138.062 243.428 138.548 243.379 138.99 243.282C139.432 243.184 139.874 243.086 140.315 242.989C141.199 242.793 142.039 242.598 142.834 242.402C143.629 242.207 144.424 242.011 145.175 241.865C145.927 241.669 146.634 241.425 147.34 241.23C148.71 240.839 149.947 240.448 151.008 240.106C152.068 239.764 152.952 239.373 153.703 239.128L152.068 239.373C154.542 238.2 156.309 237.467 157.768 237.027C159.181 236.49 160.242 236.294 161.302 236.148C162.318 236.001 163.335 235.952 164.572 235.708C165.809 235.464 167.267 235.073 169.299 234.34C168.371 233.509 169.918 231.799 171.95 229.942C172.966 229.014 174.159 228.134 175.264 227.304C176.368 226.424 177.385 225.691 178.091 225.203L178.224 225.74C179.329 224.958 180.787 223.883 182.333 222.515C183.128 221.831 183.924 221.098 184.807 220.365C185.249 219.974 185.691 219.584 186.133 219.193C186.575 218.802 187.016 218.362 187.458 217.922C189.225 216.212 191.081 214.502 192.804 212.694C193.688 211.814 194.527 210.935 195.411 210.104C196.25 209.274 197.046 208.394 197.841 207.661L198.327 208.883C199.476 207.368 201.022 205.658 202.613 203.801C203.408 202.873 204.248 201.944 205.131 201.016C205.971 200.088 206.81 199.061 207.65 198.133C208.489 197.156 209.329 196.276 210.08 195.348C210.831 194.42 211.582 193.54 212.289 192.66C212.996 191.83 213.614 191.048 214.189 190.315C214.719 189.582 215.205 188.947 215.602 188.409C216.088 187.823 216.574 187.188 217.105 186.553C217.635 185.918 218.165 185.282 218.695 184.598C219.756 183.23 220.86 181.813 221.965 180.298C224.174 177.269 226.516 173.946 228.68 170.282C229.785 168.474 230.801 166.568 231.817 164.662C232.303 163.685 232.834 162.757 233.275 161.731C233.717 160.753 234.159 159.727 234.601 158.701C235.043 157.675 235.485 156.698 235.882 155.672C236.28 154.646 236.633 153.62 236.987 152.545C237.34 151.519 237.694 150.492 238.003 149.417C238.312 148.342 238.622 147.17 238.887 146.046C238.887 146.046 239.328 145.411 239.991 144.482C240.3 143.994 240.698 143.456 241.096 142.87C241.184 142.723 241.317 142.577 241.405 142.43C241.493 142.284 241.582 142.186 241.67 142.039C241.847 141.795 242.024 141.551 242.2 141.306C243.658 139.401 245.072 137.446 245.072 137.446C245.072 137.446 245.072 137.446 245.072 137.397L245.249 136.762C245.249 136.762 245.249 136.713 245.249 136.664C245.249 136.616 245.293 136.567 245.293 136.518C245.337 136.42 245.337 136.273 245.381 136.127C245.514 135.541 245.647 134.71 245.735 133.977C245.823 133.195 245.912 132.462 245.956 131.925C246 131.387 246 130.996 246 130.996C246 130.996 245.867 130.703 245.602 130.215C245.337 129.726 244.984 129.042 244.454 128.211C243.393 126.55 241.803 124.302 239.373 121.908C238.18 120.735 236.722 119.416 235.043 118.243L234.733 118.048C234.645 117.999 234.513 117.901 234.38 117.804C234.159 117.657 233.894 117.51 233.673 117.364C233.187 117.071 232.745 116.826 232.259 116.582C231.729 116.289 231.199 116.045 230.669 115.849C230.138 115.654 229.652 115.507 229.034 115.36C228.46 115.214 227.885 115.116 227.355 115.067C226.825 115.018 226.25 115.018 225.72 115.067C225.19 115.116 224.66 115.214 224.218 115.36L223.865 115.458C223.732 115.507 223.599 115.507 223.423 115.556C223.158 115.605 222.893 115.703 222.627 115.8C222.097 115.996 221.655 116.24 221.258 116.533C220.728 116.777 220.816 117.217 220.683 117.559C220.507 118.292 220.286 119.025 220.109 119.807C219.402 122.836 218.784 125.915 218.43 128.993C218.253 130.508 218.121 132.022 218.077 133.537C218.077 133.928 218.032 134.27 218.032 134.661C218.032 134.856 218.032 135.003 218.032 135.199C220.551 116.387 218.739 129.97 219.314 125.768L219.358 125.719C219.402 125.67 219.49 125.622 219.535 125.573L219.667 125.475L219.623 125.426C219.579 125.377 219.579 125.328 219.535 125.28L219.535 125.328C219.535 125.328 219.535 125.377 219.49 125.377C219.49 125.426 219.446 125.426 219.402 125.475L219.358 125.524L219.27 125.622C219.225 125.67 219.181 125.719 219.137 125.768C219.093 125.768 219.004 125.866 218.916 125.915C218.828 125.964 218.739 126.012 218.651 126.061C218.474 126.159 218.209 126.306 217.988 126.354C217.723 126.452 217.414 126.55 217.105 126.599C216.795 126.697 216.442 126.697 216.088 126.745C215.912 126.745 215.735 126.794 215.558 126.794C215.382 126.794 215.249 126.794 215.072 126.843C214.94 126.843 214.763 126.843 214.63 126.843C214.498 126.843 214.365 126.843 214.233 126.843C213.879 126.843 213.747 126.745 214.365 126.892C214.542 126.941 214.763 126.99 214.94 127.039L215.028 127.087L215.072 127.087C183.835 115.605 206.412 123.911 199.432 121.322L199.343 121.371L199.167 121.517C198.946 121.713 198.681 121.859 198.46 122.055C198.018 122.446 197.576 122.885 197.134 123.374L196.118 122.69C196.118 122.69 195.897 123.618 195.676 124.498C195.544 124.937 195.455 125.426 195.367 125.768C195.278 126.159 195.234 126.257 195.234 126.257C194.439 127.527 194.306 128.651 194.174 129.335C194.13 129.531 194.13 129.677 194.086 129.775C194.041 129.921 193.997 130.019 193.953 130.068C193.865 130.215 193.688 130.215 193.467 130.019C193.467 130.019 193.511 129.97 193.555 129.824C193.6 129.726 193.688 129.531 193.732 129.384C193.865 129.042 194.041 128.553 194.218 128.114C194.572 127.185 194.969 126.257 194.969 126.257C193.644 128.944 193.776 126.745 193.511 125.475C192.981 126.55 192.495 127.625 191.832 128.358C192.097 129.091 192.407 128.162 192.804 127.82C192.76 128.211 192.76 128.7 192.76 129.188C192.716 129.726 192.628 130.361 192.539 130.948C192.451 131.534 192.318 132.12 192.142 132.707C191.965 133.293 191.744 133.83 191.346 134.27C189.8 137.446 189.535 133.586 187.767 137.202C185.337 141.893 182.466 146.29 179.373 150.346C176.28 154.401 172.922 158.164 169.343 161.584C165.809 165.004 162.009 168.083 158.077 170.819C154.145 173.555 150.08 175.901 145.794 178.002C145.22 177.709 145.706 177.464 146.103 177.025C144.866 177.758 143.629 178.49 142.392 179.028C141.773 179.321 141.155 179.614 140.536 179.859L140.094 180.054L139.608 180.249C139.299 180.347 138.99 180.494 138.681 180.592C138.062 180.836 137.444 181.08 136.825 181.324C136.516 181.471 136.206 181.569 135.897 181.667L134.969 181.96C134.351 182.155 133.732 182.399 133.114 182.644C132.804 182.79 132.495 182.888 132.186 182.986L131.258 183.279C129.712 183.035 129.226 182.351 128.74 181.911C129.005 182.155 127.37 182.595 124.807 183.23C124.145 183.328 123.438 183.474 122.687 183.572C121.935 183.67 121.14 183.865 120.301 183.914C119.461 184.012 118.578 184.061 117.694 184.158C117.252 184.207 116.81 184.207 116.368 184.207C115.971 184.207 115.573 184.207 115.176 184.256C114.822 183.67 114.513 183.523 114.601 183.377Z" fill="#475467"/>
<path d="M149.059 71.2668C147.274 71.2677 145.545 71.8876 144.166 73.0206C142.787 74.1536 141.843 75.7298 141.496 77.4806C141.149 79.2313 141.419 81.0483 142.261 82.622C143.103 84.1957 144.465 85.4288 146.114 86.111C147.764 86.7933 149.599 86.8826 151.306 86.3637C153.014 85.8448 154.489 84.7499 155.48 83.2654C156.471 81.7809 156.917 79.9987 156.741 78.2225C156.565 76.4463 155.779 74.786 154.517 73.5243C153.801 72.8069 152.95 72.2381 152.013 71.8507C151.077 71.4632 150.073 71.2648 149.059 71.2668Z" fill="#D5C5FF"/>
<path d="M192.011 40.4151C192.01 40.4065 192.01 40.3977 192.011 40.3891C191.767 39.3176 191.228 38.3357 190.455 37.5543C189.682 36.7728 188.706 36.2228 187.638 35.9665C179.023 33.865 165.472 36.1052 150.455 42.1177C135.32 48.188 121.139 57.149 111.553 66.7516C108.481 69.8076 105.627 73.0753 103.012 76.5306C96.5568 76.2415 90.8709 77.1608 86.0812 79.2507C69.3907 86.5958 64.6241 105.393 63.3551 113.111C63.1715 114.208 63.2434 115.332 63.5652 116.397C63.887 117.461 64.4501 118.437 65.2106 119.248C65.9711 120.059 66.9085 120.684 67.9499 121.073C68.9913 121.463 70.1085 121.607 71.2147 121.494H71.2523L89.8448 119.465C89.8679 119.702 89.8939 119.919 89.9141 120.118C90.1529 122.384 91.1633 124.499 92.7759 126.108L101.85 135.187C103.456 136.802 105.571 137.814 107.836 138.052L108.458 138.118L106.434 156.688C106.434 156.688 106.434 156.711 106.434 156.725C106.331 157.725 106.437 158.736 106.747 159.693C107.056 160.649 107.562 161.531 108.231 162.281C108.901 163.031 109.719 163.633 110.635 164.049C111.55 164.464 112.543 164.684 113.548 164.695C113.95 164.695 114.351 164.662 114.748 164.596C122.509 163.348 141.298 158.639 148.623 141.859C150.695 137.101 151.612 131.438 151.354 124.995C154.825 122.385 158.105 119.531 161.168 116.453C170.831 106.839 179.821 92.773 185.828 77.8574C191.809 63.0111 194.06 49.3587 192.011 40.4151ZM161.064 90.9664C158.689 93.344 155.662 94.9637 152.366 95.6206C149.07 96.2776 145.653 95.9422 142.548 94.6569C139.443 93.3716 136.789 91.1942 134.921 88.4001C133.054 85.6061 132.057 82.3209 132.057 78.9602C132.057 75.5995 133.054 72.3143 134.921 69.5202C136.789 66.7261 139.443 64.5487 142.548 63.2634C145.653 61.9781 149.07 61.6428 152.366 62.2997C155.662 62.9566 158.689 64.5763 161.064 66.954C162.656 68.522 163.92 70.391 164.783 72.4522C165.646 74.5134 166.09 76.7256 166.09 78.9602C166.09 81.1947 165.646 83.4069 164.783 85.4681C163.92 87.5293 162.656 89.3983 161.064 90.9664Z" fill="#D5C5FF"/>
<path d="M100.809 137.65C99.6904 137.511 98.5597 137.786 97.6292 138.422C95.7821 139.685 93.9263 140.934 92.0532 142.151C88.2636 144.613 83.7311 140.289 85.9829 136.369L89.495 130.299C89.9971 129.565 90.2767 128.701 90.3003 127.811C90.3238 126.922 90.0903 126.045 89.6277 125.285C89.1652 124.525 88.4932 123.914 87.6924 123.526C86.8916 123.139 85.9959 122.99 85.1128 123.099C81.2148 123.592 77.5915 125.367 74.8135 128.146C73.7556 129.206 70.5383 132.427 68.8068 144.697C68.314 148.222 68.0033 151.77 67.876 155.326C67.8602 155.943 67.9681 156.558 68.1935 157.132C68.4188 157.707 68.757 158.231 69.188 158.673C69.6191 159.115 70.1343 159.467 70.7033 159.707C71.2723 159.946 71.8836 160.07 72.501 160.07H72.6167C76.176 159.944 79.7265 159.635 83.2542 159.145C95.5306 157.41 98.7508 154.19 99.8088 153.132C102.6 150.353 104.371 146.713 104.836 142.801C104.984 141.584 104.644 140.358 103.888 139.392C103.133 138.426 102.026 137.8 100.809 137.65Z" fill="#D5C5FF"/>
</svg>