<svg xmlns:xlink="http://www.w3.org/1999/xlink" xmlns="http://www.w3.org/2000/svg" width="47" height="20" viewBox="0 0 47 20" fill="none">
<path d="M31.4958 7.36475H33.4878L33.4919 5.46476C33.5081 5.41793 33.9707 4.85013 34.0837 4.711L35.8534 7.3634L38.2137 7.36113L35.449 3.2001L37.9196 0.00366211L35.759 0.00366211C35.759 0.00366211 33.8199 2.60945 33.4835 3.02479V0.00366211L31.4944 0.00366211L31.4958 7.36475Z" fill="#C22F22"/>
<path d="M24.2754 7.36073H26.2641L26.2613 5.06848H26.9232L28.2273 7.36413H30.3786L28.86 4.75268C30.1377 4.14371 30.1593 3.09067 30.1923 2.73211C30.2 1.70147 29.7957 0.16546 27.4772 0.00575109L24.2768 0.00439453L24.2754 7.36073ZM26.2641 1.68609L27.3214 1.69559C28.0488 1.73586 28.207 2.34189 28.1986 2.61878C28.1736 3.36371 27.7024 3.55102 27.0924 3.55102H26.2613L26.2641 1.68609Z" fill="#C22F22"/>
<path d="M9.78809 1.71122H11.7677L11.7615 7.36099H13.755L13.7664 1.66394L15.7178 1.66576L15.7205 0.0078125L9.78809 0.0078125V1.71122Z" fill="#C22F22"/>
<path d="M16.5203 1.64754L17.8433 1.64437V2.15087H16.5146L16.5203 4.82634C16.5849 5.70926 17.0857 7.44728 19.7335 7.48257C20.6019 7.49433 22.8109 7.17378 22.9349 4.68065V0.0038453L20.941 0V1.66541L22.2649 1.64754V2.14521H20.9419L20.9467 4.62817C20.9053 5.5215 20.1929 5.82598 19.7015 5.79363C18.9825 5.79363 18.5991 5.40726 18.499 4.7415V0.0038453L16.5171 0.0038453L16.5203 1.64754Z" fill="#C22F22"/>
<path d="M5.06199 16.5801C5.43089 16.591 7.055 16.5835 7.055 16.5835L7.04704 14.4729L8.30157 14.4697C8.82557 14.4471 9.50151 14.2883 10.0876 13.8404C10.8716 13.2493 10.9541 12.5035 10.9735 11.7418C11.0026 10.2755 9.73395 9.22039 8.3864 9.22039L5.05176 9.21338L5.06199 16.5801ZM7.67931 12.8159L7.05318 12.8132V10.8765L8.04729 10.8788C8.68275 10.9073 8.98955 11.3052 8.98137 11.8452C8.98137 12.5949 8.50649 12.8634 7.67931 12.8159Z" fill="#C22F22"/>
<path d="M16.1616 10.8784H18.1212V16.5793L20.1108 16.5815L20.1094 10.8759H22.0731V9.21229L16.1616 9.20776V10.8784Z" fill="#C22F22"/>
<path d="M22.9343 16.5811L28.2845 16.5836L28.2868 14.9116L24.928 14.9125L24.9271 13.6565L27.597 13.6561V12.0595L24.9244 12.0617V10.8757H28.1319L28.1342 9.21002L22.9366 9.20776L22.9343 16.5811Z" fill="#C22F22"/>
<path d="M9.94507 16.5812H11.8996C11.8808 16.5812 12.2035 15.8663 12.2658 15.6994L14.8406 15.6958L15.2254 16.5839L17.2823 16.5803L13.6468 9.02124H13.5874L9.94507 16.5812ZM13.5322 12.7138L14.1724 14.2387H12.876L13.5322 12.7138Z" fill="#C22F22"/>
<path d="M37.0503 10.8758L38.9962 10.8783V16.5828L40.9885 16.5837C40.9885 16.5837 40.9885 14.1299 40.9835 10.8828L42.9529 10.8767L42.9556 9.20947L37.0514 9.21219L37.0503 10.8758Z" fill="#C22F22"/>
<path d="M29.6396 16.4963H31.5148V12.845C31.7887 13.0239 32.8528 13.9263 33.9266 14.8104C35.0676 15.7514 36.2139 16.6701 36.2139 16.6701L36.2946 16.6787L36.3007 9.1201L34.4294 9.11558L34.4326 12.7991C33.9921 12.4652 32.2758 11.0246 31.9959 10.7937C31.7091 10.5557 30.1316 9.27054 29.7627 8.9665C29.7463 8.95519 29.7272 8.94773 29.7074 8.94479C29.6876 8.94185 29.6674 8.94343 29.6483 8.94976L29.6396 16.4963Z" fill="#C22F22"/>
<path d="M41.6431 7.55172H44.6611V18.0581L41.6453 18.0554V19.9911H46.6209L46.6243 5.59766L41.6458 5.59902L41.6431 7.55172Z" fill="#2D3748"/>
<path d="M4.9799 7.55772H1.94684L1.95343 18.0569H4.99036V19.9944L0 19.9996L0.0056862 5.59619H4.9799V7.55772Z" fill="#2D3748"/>
</svg>