<svg xmlns:xlink="http://www.w3.org/1999/xlink" xmlns="http://www.w3.org/2000/svg" width="260" height="243" viewBox="0 0 260 243" fill="none">
<path d="M135.677 57.7745C135.677 57.7745 136.455 57.9566 137.232 58.1387C138.009 58.3208 138.743 58.5029 138.743 58.5029C138.268 58.8216 137.448 58.594 136.714 58.3663C135.98 58.1387 135.418 57.9111 135.548 58.1387C137.102 59.0037 136.584 59.2314 136.109 59.1858C135.893 59.1858 135.634 59.0948 135.505 59.1403C135.375 59.1403 135.375 59.2769 135.505 59.6866C135.461 59.6411 135.418 59.5956 135.375 59.5501L135.289 59.5956C135.159 59.6411 135.03 59.6866 134.9 59.7777C134.641 59.9143 134.339 60.0053 134.037 60.1419C132.871 60.5972 131.705 61.0069 131.619 60.5061C131.014 62.7825 127.128 63.602 124.451 65.6507C123.631 66.6978 125.444 65.6507 126.481 65.6052L120.133 70.0213C117.284 71.1139 116.161 70.6587 118.924 68.7921C114.52 71.2961 105.928 76.1675 95.1769 83.0421C94.486 83.4518 93.8384 83.9071 93.1475 84.3623C92.4567 84.8176 91.7658 85.2274 91.075 85.7282C89.5206 86.7753 87.8799 87.8679 86.2391 88.9606L85.2892 89.598L84.2961 90.2809C83.6485 90.7361 83.0008 91.2369 82.3531 91.6922C81.0578 92.6483 79.7625 93.6044 78.424 94.6059C77.0855 95.562 75.7902 96.5636 74.4516 97.5652C73.7608 98.066 73.1132 98.5668 72.4223 99.0676C71.7315 99.5684 71.127 100.115 70.4793 100.616C67.8887 102.71 65.298 104.85 62.6642 106.989C62.0165 107.536 61.3257 108.036 60.7212 108.628C60.1167 109.175 59.5122 109.721 58.8646 110.313C57.6556 111.451 56.4034 112.544 55.1513 113.682C53.8991 114.82 52.6902 115.958 51.438 117.051C51.1358 117.324 50.7904 117.597 50.5313 117.916L49.6678 118.781L47.9407 120.511C45.6522 122.833 43.3638 125.155 41.0754 127.477C39.0461 129.798 37.0167 132.12 34.9874 134.442L33.4762 136.081C33.2171 136.354 32.9581 136.673 32.7422 136.946L32.0513 137.811C31.1446 138.949 30.281 140.088 29.3743 141.271C28.4676 142.409 27.604 143.548 26.6973 144.686C26.2655 145.278 25.8338 145.824 25.3588 146.37C24.9702 146.917 24.5816 147.463 24.193 148.055C22.6818 150.286 21.1706 152.471 19.6594 154.702L19.0981 155.521C18.9254 155.794 18.7527 156.068 18.6231 156.341C18.3209 156.887 17.9755 157.388 17.6732 157.934C17.0256 158.981 16.4211 160.028 15.7734 161.076C15.1689 162.123 14.5213 163.17 13.9168 164.217C13.5714 164.718 13.3555 165.219 13.0964 165.719C12.8373 166.22 12.5783 166.721 12.3192 167.222C11.2829 169.225 10.2467 171.183 9.2536 173.095C8.99454 173.596 8.77865 174.051 8.56276 174.506C8.34687 174.961 8.13099 175.417 7.95828 175.917C7.5265 176.828 7.1379 177.739 6.7493 178.649C5.0222 182.291 3.85641 185.615 2.64744 188.802C2.51791 189.211 2.3452 189.576 2.21566 189.985C2.08613 190.35 1.87024 190.759 1.82707 191.124C1.69753 191.852 1.52482 192.535 1.39529 193.218C1.13623 194.584 0.877163 195.904 0.618098 197.133C0.574921 197.452 0.488565 197.77 0.445387 198.044C0.40221 198.18 0.402211 198.362 0.359034 198.499C0.315856 198.635 0.359034 198.772 0.359034 198.909C0.359034 199.455 0.359034 199.956 0.359034 200.502C0.359034 201.504 0.359034 202.505 0.359034 203.416C0.359034 203.871 0.359034 204.281 0.359034 204.736C0.359034 204.964 0.359034 205.146 0.359034 205.374C0.359034 205.556 0.359033 205.783 0.402211 205.965C0.531743 206.648 0.661276 207.286 0.790809 207.878C0.920341 207.468 1.0067 207.058 1.04987 206.603C1.09305 206.375 1.09305 206.147 1.09305 205.92C1.09305 205.783 1.09305 205.692 1.09305 205.556V205.374L1.13623 205.191C1.30894 204.099 1.43847 202.915 1.568 201.731C1.74071 200.548 1.91342 199.364 2.21566 198.271C2.3452 197.725 2.69062 197.133 2.99286 196.587C3.2951 196.04 3.64052 195.54 4.0723 195.039C4.0723 195.722 4.02912 196.359 3.98594 196.951C4.02912 197.543 4.02912 198.044 4.02912 198.544C3.98594 199.592 3.89959 200.502 3.77005 201.367C3.6837 202.187 3.55417 202.961 3.59735 203.598C3.59735 203.78 3.59735 203.917 3.64052 204.053C3.6837 204.19 3.72688 204.326 3.77005 204.417C3.89959 204.645 4.02912 204.873 4.20183 205.055C3.42463 205.965 3.07922 207.149 2.94968 208.469C2.86333 209.79 2.82015 211.338 3.20875 212.703C3.51099 214.115 3.85641 215.572 4.02912 216.983C4.0723 217.711 4.20183 218.349 4.24501 219.032C4.28819 219.715 4.37454 220.443 4.33136 221.217C4.33136 221.217 4.89267 221.399 5.49716 221.627C6.10164 221.854 6.70613 222.036 6.70613 222.036C6.70613 222.036 6.79248 222.264 6.87884 222.583C6.96519 222.901 7.1379 223.357 7.26744 223.812C7.56968 224.632 7.82874 225.451 7.82874 225.451C8.95136 226.726 9.85809 227.545 10.5921 228.137C11.3261 228.774 11.8874 229.139 12.4487 229.503C12.9669 229.867 13.4418 230.14 13.8304 230.368C14.219 230.596 14.5644 230.778 14.8667 230.914C16.0325 231.506 16.4211 231.643 16.6801 231.87C16.9392 232.052 17.0687 232.28 17.8459 232.917C18.2345 233.236 18.7527 233.6 19.6162 234.101C20.4366 234.602 21.516 235.239 23.1136 235.877C25.0566 236.56 27.1723 236.833 29.288 236.924C29.8493 236.924 30.3674 236.969 30.8855 236.969C31.49 236.924 32.0513 236.924 32.6126 236.878C33.7352 236.787 34.8147 236.742 35.8509 236.651C36.8009 236.605 38.053 236.378 39.1756 236.195C40.2982 236.013 41.3345 235.877 42.3276 235.786C42.8457 235.74 43.3207 235.695 43.7956 235.649C44.4001 235.558 44.9614 235.421 45.5227 235.376C46.6453 235.194 47.7248 235.103 48.761 235.057C47.3793 235.239 44.9182 234.374 49.7109 233.008C49.4519 233.509 50.1427 233.555 51.3085 233.327C51.6107 233.282 51.913 233.191 52.2584 233.145C52.6038 233.054 53.0356 232.917 53.4674 232.781C54.3309 232.462 55.2808 232.143 56.1876 231.825C58.0874 231.187 59.9872 230.504 61.4984 230.095C61.6711 230.049 61.887 229.958 62.1029 229.913C62.2756 229.867 62.4915 229.776 62.6642 229.731C63.0096 229.639 63.355 229.548 63.6141 229.503C64.1754 229.412 64.564 229.412 64.7367 229.548C66.1184 229.002 68.2773 228.228 70.6088 227.363C71.1702 227.181 71.861 226.862 72.4655 226.589C73.1131 226.316 73.7608 226.043 74.4085 225.724C75.7038 225.178 76.9559 224.586 78.1649 224.04C80.5397 222.947 82.569 221.9 83.6485 221.171C84.7711 220.397 84.9438 219.942 83.7348 219.897C84.9438 219.942 89.607 218.303 92.7589 217.347C95.8677 216.437 97.4221 216.118 92.284 218.713C95.0905 217.62 97.8107 216.528 100.358 215.526C101.006 215.253 101.61 215.025 102.258 214.752C102.862 214.479 103.467 214.251 104.071 214.024C105.237 213.523 106.36 213.022 107.353 212.521C107.353 212.521 105.626 213.068 103.856 213.614C102.992 213.887 102.128 214.16 101.481 214.388C100.833 214.616 100.401 214.752 100.401 214.752C102.776 213.705 104.935 212.885 107.007 212.066C109.08 211.247 111.066 210.518 112.923 209.835C116.679 208.515 120.047 207.331 123.199 206.239C126.394 205.191 129.373 204.144 132.266 203.006C133.734 202.414 135.159 201.868 136.584 201.231C136.93 201.094 137.275 200.912 137.664 200.775L138.182 200.548L138.311 200.502L138.398 200.457H138.441L138.57 200.366C138.916 200.138 139.261 199.956 139.607 199.683C139.607 199.683 139.391 199.728 139.045 199.728C138.657 199.774 138.441 199.728 137.361 200.001C135.634 200.366 133.907 200.73 133.907 200.73C135.246 200.229 136.584 199.819 137.836 199.364C138.527 199.136 139.218 198.909 139.866 198.681C141.118 198.271 142.327 197.953 143.406 197.679C144.529 197.452 145.522 197.27 146.429 197.27C146.904 197.27 147.292 197.315 147.724 197.361C147.81 197.361 147.94 197.406 148.026 197.406L148.156 197.452C148.156 197.452 148.199 197.497 148.199 197.543C148.242 197.634 148.285 197.77 148.328 197.862C148.328 197.862 148.328 197.862 148.328 197.907C148.328 197.907 148.328 197.907 148.285 197.953C148.199 197.998 148.069 198.044 147.94 198.089C147.422 198.317 146.731 198.59 146.04 198.909C144.658 199.501 143.233 200.092 143.233 200.092C144.399 199.728 145.479 199.364 146.558 199.045C147.076 198.863 147.594 198.727 148.112 198.544L148.415 198.453H148.458C148.501 198.453 148.501 198.453 148.501 198.408C148.674 198.271 148.89 198.18 149.106 198.044C149.494 197.77 149.926 197.315 150.66 196.587L150.271 196.632C150.833 195.858 152.214 194.902 154.416 193.855C156.618 192.808 159.641 191.67 163.095 190.623C165.383 189.94 167.801 189.302 170.219 188.62C172.594 187.982 174.926 187.345 176.869 186.707C176.869 186.707 177.473 186.161 178.035 185.615C178.596 185.068 179.114 184.522 179.114 184.522C179.114 184.522 180.712 184.067 182.395 183.657C184.123 183.247 185.85 182.838 185.85 182.838C185.677 182.838 181.877 184.522 178.38 186.207C174.883 187.846 171.731 189.439 172.249 189.075C172.94 189.075 173.976 189.029 175.358 189.075C176.048 189.075 176.826 189.075 177.56 189.348C177.948 189.485 178.337 189.712 178.553 190.076C178.769 190.441 178.855 190.896 178.725 191.26C178.466 192.034 177.732 192.535 177.085 193.081C176.394 193.582 175.703 194.128 174.926 194.675C173.415 195.722 171.731 196.769 169.96 197.816C166.506 199.91 162.836 202.141 160.073 204.417C158.691 205.51 157.482 206.648 156.575 207.559C156.446 207.695 156.359 207.786 156.23 207.878L156.144 207.969C156.1 208.014 156.1 208.014 156.1 208.014L156.057 208.06L155.884 208.242C155.798 208.378 155.669 208.469 155.582 208.606C155.194 209.061 154.762 209.516 154.416 209.972C154.028 210.427 153.682 210.882 153.337 211.292C152.646 212.157 151.998 212.885 151.437 213.614C150.876 214.342 150.358 214.98 149.926 215.526C149.537 215.936 149.192 216.346 148.89 216.664C148.587 217.028 148.328 217.302 148.069 217.529C147.594 218.03 147.249 218.349 146.947 218.531C146.385 218.895 146.213 218.622 146.213 218.167C146.213 217.211 146.947 215.298 146.904 215.207C146.17 216.437 145.565 217.484 145.133 218.303C144.831 218.85 144.572 219.35 144.356 219.76C144.097 220.215 143.924 220.534 143.752 220.898C143.665 221.08 143.579 221.262 143.492 221.49C143.406 221.672 143.32 221.854 143.233 222.036C142.543 223.584 141.938 225.178 141.549 226.726C141.118 228.319 140.859 229.731 140.643 231.278C140.6 231.688 140.556 232.052 140.513 232.462C140.47 232.826 140.427 233.327 140.427 233.737C140.384 234.192 140.384 234.602 140.384 235.103C140.384 235.604 140.384 236.15 140.384 236.651C140.384 236.924 140.427 237.197 140.427 237.47C140.427 237.789 140.47 238.108 140.513 238.426C140.556 239.064 140.643 239.746 140.772 240.475C140.902 241.203 141.031 241.977 141.247 242.797C141.463 243.616 141.679 244.481 142.024 245.392L142.068 245.574C142.197 245.938 142.327 246.348 142.499 246.712V246.758L142.543 246.803L142.586 246.849V246.894C142.672 247.076 142.715 247.258 142.802 247.441C143.104 248.169 143.449 248.897 143.838 249.671C143.924 249.808 144.011 249.99 144.097 250.127C144.183 250.263 144.227 250.354 144.313 250.491C144.442 250.719 144.615 250.992 144.745 251.219C145.954 253.177 147.465 254.998 149.019 256.5C150.574 258.003 152.171 259.232 153.682 260.143C154.373 260.598 155.15 261.008 155.755 261.372C155.928 261.463 156.057 261.554 156.23 261.6C156.403 261.691 156.532 261.736 156.705 261.827C156.834 261.918 157.007 261.964 157.137 262.055C157.482 262.191 157.827 262.374 158.173 262.51C159.036 263.011 158.821 263.238 158.259 263.33C158.13 263.33 157.957 263.375 157.784 263.375H157.741H157.698L156.834 263.011H156.791C156.662 262.965 156.532 262.92 156.446 262.874C156.23 262.783 155.928 262.692 155.625 262.601C154.46 262.146 152.992 261.417 151.61 260.507C152.085 260.871 152.517 261.099 152.948 261.372L153.553 261.736L154.114 262.055L154.675 262.374L155.194 262.647C155.539 262.829 155.798 262.965 156.1 263.102L156.489 263.284L156.575 263.33L157.568 263.785L157.655 263.83L157.914 263.921C158.087 264.012 158.259 264.058 158.432 264.149C158.605 264.24 158.777 264.286 158.907 264.377L159.036 264.422L159.123 264.468L159.295 264.513C159.511 264.604 159.727 264.695 159.943 264.741C160.807 265.06 161.627 265.333 162.361 265.606C162.534 265.651 162.75 265.743 162.922 265.788C163.009 265.834 163.095 265.834 163.181 265.879C163.268 265.879 163.311 265.925 163.397 265.925C163.656 265.97 163.915 266.061 164.175 266.107C164.649 266.243 165.081 266.334 165.47 266.38C166.204 266.516 166.679 266.516 166.852 266.334C165.902 266.061 165.081 265.788 164.434 265.515C164.131 265.378 163.829 265.242 163.57 265.105C163.441 265.014 163.268 264.969 163.138 264.878C163.009 264.786 162.836 264.741 162.75 264.65C161.713 264.058 161.282 263.512 161.066 263.056C160.807 262.601 160.764 262.191 160.548 261.736C160.202 261.235 160.245 260.871 159.943 260.416C159.943 260.416 160.073 260.461 160.289 260.598C160.332 260.643 160.418 260.643 160.504 260.689C160.677 260.735 160.893 260.826 161.066 260.917C161.498 261.053 161.929 261.235 162.447 261.417C162.966 261.6 163.527 261.782 164.088 261.964C164.606 262.1 165.038 262.237 165.556 262.374C166.074 262.51 166.592 262.647 167.111 262.738C167.629 262.829 168.147 262.92 168.665 263.056C169.183 263.147 169.744 263.238 170.219 263.33C170.738 263.375 171.212 263.466 171.687 263.512C172.68 263.648 173.501 263.694 174.278 263.694C175.012 263.739 175.66 263.739 176.048 263.739C176.48 263.739 176.696 263.739 176.696 263.739L176.005 264.969C176.437 264.969 176.912 264.923 177.387 264.832C177.646 264.786 177.905 264.741 178.164 264.65C178.423 264.559 178.682 264.513 178.984 264.422C179.546 264.24 180.193 264.012 180.841 263.785C181.489 263.557 182.223 263.284 183 263.011C183.734 262.738 184.597 262.419 185.461 262.1C186.325 261.782 187.318 261.463 188.311 261.144C190.34 260.507 192.629 259.869 195.176 259.278C195.694 259.141 196.212 259.004 196.73 258.868C197.205 258.731 197.723 258.595 198.198 258.458C199.191 258.185 200.185 257.912 201.178 257.639C203.164 257.092 205.15 256.455 207.093 255.863C211.022 254.634 214.951 253.268 218.837 251.902C226.609 249.171 234.165 246.302 241.419 243.753C241.419 244.527 238.526 246.029 235.59 247.577C237.533 246.894 240.426 245.62 242.369 245.437C238.483 245.528 248.155 242.387 245.262 242.888C254.934 236.195 269.441 233.646 278.163 228.274C278.163 225.451 283.776 177.693 282.783 174.688C285.719 173.687 288.612 172.639 289.562 172.548C288.569 172.139 282.783 173.914 279.89 175.417V177.192C273.111 180.334 277.947 176.828 271.168 179.469C270.348 178.285 276.522 175.69 282.006 173.505C276.997 175.189 271.73 176.054 270.175 178.239C265.339 179.423 270.175 176.464 264.346 177.966C260.46 179.833 255.624 183.065 250.789 183.976V183.703C239.174 186.48 234.338 192.034 223.673 194.493L224.623 193.628C220.737 194.219 214.001 197.862 207.438 199.318C209.338 198.954 211.195 199.318 207.438 200.866C199.926 202.642 195.349 205.1 189.908 205.738C189.908 205.738 188.786 206.466 187.62 207.149C186.497 207.832 185.375 208.56 185.375 208.56C184.641 208.788 183.82 209.016 182.957 209.243C182.741 209.289 182.568 209.38 182.352 209.425C182.18 209.471 181.964 209.516 181.791 209.562C181.575 209.608 181.402 209.653 181.186 209.744C181.014 209.79 180.798 209.835 180.625 209.881C179.114 210.245 177.646 210.564 176.826 210.655C176.739 210.655 176.61 210.7 176.523 210.7C176.437 210.7 176.394 210.7 176.307 210.7C176.264 210.7 176.221 210.7 176.221 210.7H176.178C176.135 210.7 176.092 210.7 176.092 210.7C176.092 210.7 176.092 210.7 176.092 210.746C176.092 211.11 176.048 211.52 176.005 211.929C175.962 212.339 175.962 212.658 175.919 212.977C175.919 213.295 175.876 213.614 175.832 213.933C175.789 214.251 175.746 214.57 175.703 214.889C175.66 215.162 175.66 215.389 175.617 215.663C175.573 215.936 175.53 216.163 175.487 216.437L175.401 216.846C175.358 216.983 175.358 217.028 175.358 217.165C175.271 217.529 175.185 217.939 175.098 218.349C175.098 218.394 175.098 218.394 175.098 218.44L175.142 218.485L175.185 218.622C175.228 218.713 175.271 218.804 175.271 218.85C175.357 219.032 175.401 219.214 175.444 219.396C175.487 219.487 175.487 219.578 175.53 219.669C175.53 219.669 175.573 219.715 175.53 219.715H175.444H175.271C175.055 219.715 174.839 219.715 174.58 219.669C174.364 219.669 174.105 219.669 173.889 219.624H173.846C174.321 217.985 169.615 233.555 171.558 227.135L171.256 227.909L170.651 229.321C170.478 229.685 170.306 230.095 170.133 230.459C170.003 230.778 169.874 231.051 169.701 231.37C168.622 233.555 167.931 234.602 167.326 235.376C167.024 235.74 166.765 235.968 166.592 236.15C166.549 236.195 166.506 236.241 166.463 236.241C166.42 236.286 166.377 236.286 166.377 236.332C166.333 236.332 166.333 236.423 166.333 236.423C166.333 236.423 166.333 236.469 166.29 236.469C166.29 236.469 166.247 236.423 166.247 236.377L166.204 236.286L166.161 236.241C166.333 236.423 166.204 236.286 166.247 236.332C166.247 236.332 166.247 236.332 166.29 236.332H166.333C166.42 236.332 166.463 236.332 166.592 236.332H166.765C166.852 236.332 166.895 236.332 166.981 236.332L167.24 236.377C167.326 236.377 167.413 236.423 167.542 236.423C167.758 236.469 167.974 236.514 168.233 236.605C168.708 236.787 169.399 237.015 170.09 237.379C170.306 237.47 170.522 237.561 170.694 237.698L171.385 238.062C171.644 238.199 171.86 238.335 172.119 238.472L173.026 239.018L174.019 239.655C174.408 239.883 174.839 240.156 175.228 240.429L175.53 240.612L175.962 240.885L176.782 241.477L177.603 242.068L178.035 242.387C178.121 242.478 178.466 242.66 178.682 242.797L181.532 244.572L182.266 245.028C181.143 244.208 195.133 254.361 189.174 250.036L189.217 249.99L189.347 249.808L189.606 249.444C189.951 248.943 190.211 248.442 190.599 247.941C190.945 247.441 191.29 246.94 191.679 246.439C192.067 245.938 192.456 245.437 192.844 244.891C193.06 244.618 193.276 244.39 193.492 244.117L194.183 243.298L195.176 242.205C196.601 240.794 198.026 239.382 199.451 237.971C199.796 237.607 200.228 237.288 200.616 236.969L201.825 235.968C202.646 235.285 203.423 234.647 204.243 233.965C204.459 233.782 204.632 233.646 204.848 233.464L205.495 232.963L206.834 232.007C207.697 231.37 208.604 230.687 209.468 230.049L210.115 229.548C210.331 229.366 210.59 229.23 210.806 229.048L212.231 228.092C213.181 227.454 214.131 226.817 215.124 226.179C216.074 225.542 217.11 224.905 218.146 224.267C219.183 223.63 220.219 222.993 221.212 222.355C225.4 219.76 229.761 217.165 234.165 214.524C236.367 213.204 238.526 211.884 240.728 210.564C241.246 210.245 241.851 209.881 242.369 209.562L243.923 208.56L247.075 206.557C247.593 206.239 248.155 205.874 248.63 205.556L250.098 204.554L253.034 202.596C253.509 202.278 254.027 201.959 254.502 201.595L255.84 200.639L258.517 198.727C258.949 198.408 259.424 198.089 259.813 197.77L260.935 196.86L263.224 195.039L264.346 194.128L265.21 193.263L266.937 191.579L267.801 190.714C268.06 190.441 268.232 190.213 268.448 189.94L269.744 188.392L270.391 187.618C270.607 187.345 270.737 187.117 270.909 186.889L271.902 185.478C272.636 184.477 273.025 183.703 273.586 182.792L273.975 182.155C274.018 182.064 274.104 181.927 274.148 181.836L274.277 181.563L274.882 180.379L275.184 179.787C275.27 179.605 275.4 179.378 275.443 179.241L275.918 178.148C276.091 177.784 276.263 177.42 276.393 177.101C276.522 176.782 276.652 176.418 276.781 176.1C277.818 173.459 278.422 171.228 278.94 169.179C279.415 167.131 279.761 165.31 279.977 163.534C280.02 163.079 280.106 162.669 280.149 162.259C280.193 161.85 280.236 161.44 280.279 161.03C280.365 160.211 280.408 159.482 280.408 158.435C280.408 157.433 280.279 156.204 279.933 154.52C279.588 152.835 278.94 150.832 278.206 149.239C277.472 147.645 276.738 146.461 276.091 145.505C275.443 144.549 274.839 143.821 274.277 143.183C273.716 142.546 273.155 142.045 272.636 141.544C272.118 141.044 271.643 140.588 271.212 140.133L271.989 140.543C271.687 140.27 271.384 139.951 271.039 139.632C270.693 139.359 270.305 139.04 269.916 138.722C269.528 138.403 269.139 138.13 268.75 137.811C268.578 137.675 268.362 137.493 268.146 137.356C267.93 137.219 267.757 137.037 267.541 136.901C266.635 136.309 265.685 135.671 264.692 135.08C264.433 134.943 264.217 134.761 263.958 134.624C263.699 134.488 263.396 134.351 263.137 134.169C262.576 133.896 261.972 133.577 261.41 133.258C260.806 132.94 260.245 132.667 259.64 132.348L259.424 132.211L259.165 132.12L258.647 131.938C258.302 131.802 257.956 131.665 257.568 131.528C256.877 131.255 256.143 130.982 255.409 130.709C255.063 130.572 254.675 130.436 254.329 130.299C253.941 130.163 253.466 130.072 253.077 129.981C252.213 129.753 251.35 129.571 250.443 129.343C250.011 129.252 249.58 129.116 249.105 129.024L248.457 128.842L248.112 128.751C247.982 128.751 247.853 128.706 247.723 128.706C245.65 128.478 243.535 128.205 241.376 127.977C233.777 127.613 225.53 127.477 216.506 127.795C207.395 128.205 197.508 129.07 187.015 130.618C176.566 132.075 165.427 134.351 154.244 137.174L150.055 138.221C148.674 138.585 147.249 138.995 145.867 139.359C143.061 140.133 140.297 140.907 137.491 141.727C136.109 142.136 134.684 142.546 133.303 143.001C132.482 143.274 131.705 143.502 130.885 143.775C129.33 144.276 127.776 144.777 126.221 145.323C125.444 145.596 124.667 145.824 123.89 146.097C123.329 146.279 122.724 146.507 122.163 146.689C121.947 146.78 121.731 146.871 121.515 146.962C121.083 147.144 120.652 147.326 120.22 147.554C119.356 147.964 118.45 148.419 117.543 148.874C115.729 149.83 113.786 150.923 111.8 152.152C112.189 151.333 112.059 151.151 111.671 151.151C111.325 151.151 110.764 151.378 110.678 151.151C110.375 151.606 109.685 152.243 109.037 152.835C108.389 153.427 107.742 153.882 107.482 153.928C106.576 154.155 105.971 154.338 105.496 154.565C105.021 154.793 104.633 155.066 104.201 155.385C103.769 155.703 103.251 156.113 102.474 156.477C102.085 156.659 101.61 156.842 101.049 156.933C100.747 156.978 100.445 156.978 100.142 156.887C99.84 156.796 99.581 156.568 99.5378 156.295C99.106 155.385 99.84 152.972 101.567 150.149C103.251 147.326 106.014 144.185 108.95 141.636C110.419 140.361 111.93 139.177 113.398 138.175C114.132 137.675 114.823 137.219 115.513 136.81C115.859 136.582 116.204 136.4 116.507 136.218C116.679 136.127 116.852 135.99 117.068 135.899C117.629 135.535 118.19 135.171 118.752 134.806C128.639 128.342 137.275 123.425 142.024 120.875C146.558 117.005 152.258 113.5 158 110.085C159.857 108.993 161.757 107.9 163.613 106.807C166.161 105.305 168.708 103.802 171.169 102.346C176.135 99.3863 180.798 96.427 184.943 93.6044L183.561 94.9702C185.893 93.5133 189.563 91.1914 194.269 88.2322C195.435 87.5037 196.687 86.7298 197.983 85.9103C199.235 85.0908 200.53 84.2258 201.912 83.3608C203.293 82.4502 204.675 81.5397 206.143 80.5836C206.489 80.356 206.877 80.0828 207.266 79.8552C207.654 79.6275 208 79.3544 208.345 79.1267C209.036 78.6259 209.77 78.1251 210.504 77.6243C211.972 76.6227 213.44 75.5301 214.994 74.483C215.772 73.9366 216.549 73.3903 217.326 72.844C217.412 72.7529 217.542 72.7074 217.628 72.6163L217.844 72.3887L218.319 71.979C218.621 71.7058 218.924 71.4326 219.269 71.1139C220.521 69.9758 221.773 68.8376 223.069 67.6539C223.716 67.062 224.364 66.4702 225.012 65.8783C225.184 65.7417 225.314 65.6052 225.4 65.423L225.746 64.9678C225.962 64.6946 226.221 64.3759 226.437 64.1028C227.386 62.9191 228.336 61.7354 229.286 60.5517L230.02 59.6411L230.366 59.1858C230.409 59.0948 230.495 59.0493 230.538 58.9582L230.668 58.7306C231.013 58.1842 231.359 57.5924 231.704 57.0461C232.395 55.9079 233.086 54.8152 233.777 53.6771L234.295 52.812C234.424 52.5389 234.554 52.3112 234.683 52.0381L235.417 50.4902C235.892 49.443 236.411 48.3959 236.885 47.3488C237.36 46.3472 237.706 45.3456 238.051 44.2074C238.742 42.0221 239.26 39.5636 239.26 36.4678V35.8759C239.26 35.6938 239.217 35.4662 239.217 35.2841C239.174 34.8743 239.131 34.5101 239.088 34.0549C239.044 33.6451 239.001 33.2354 238.958 32.8256C238.915 32.4159 238.828 32.0061 238.785 31.5509L238.699 30.9135L238.526 30.3216C238.397 29.9119 238.31 29.5021 238.181 29.1379C237.922 28.364 237.663 27.59 237.404 26.9071C236.885 25.4957 236.195 24.312 235.59 23.2649C234.942 22.2178 234.295 21.3073 233.69 20.5333C233.043 19.7138 232.438 18.9854 231.791 18.348C231.618 18.1659 231.488 18.0293 231.316 17.8472C231.143 17.7106 231.013 17.5285 230.797 17.3919C230.409 17.0732 230.063 16.8001 229.675 16.4814C228.207 15.2977 226.825 14.2505 225.616 13.2489C224.968 12.7481 224.407 12.2929 223.803 11.8376C223.5 11.61 223.241 11.4279 222.982 11.2002C222.853 11.1092 222.723 11.0181 222.594 10.8815C222.507 10.836 222.464 10.7905 222.378 10.745C222.291 10.6994 222.205 10.6539 222.119 10.6084C220.651 9.97099 219.399 9.42467 218.362 8.9694L220.133 10.1531C216.376 8.78728 213.829 7.74017 211.929 6.82962C210.979 6.37435 210.245 5.96461 209.597 5.55486C209.511 5.50933 209.425 5.46381 209.338 5.41828C209.252 5.37275 209.122 5.32723 209.036 5.32723C208.82 5.23617 208.604 5.19064 208.431 5.14511C208.043 5.00853 207.654 4.87195 207.266 4.73537C204.286 3.64272 201.998 2.41349 194.917 0.546875C194.917 0.865565 194.615 1.04767 194.097 1.22978C193.837 1.32084 193.535 1.36636 193.19 1.41189C192.844 1.45742 192.413 1.54847 191.938 1.594C190.081 1.82163 187.577 1.91269 184.9 1.91269C182.223 1.91269 179.373 1.82163 176.782 1.73058C175.487 1.68505 174.235 1.594 173.155 1.54847C171.99 1.54847 170.953 1.50294 170.09 1.50294L170.651 1.04767C168.017 1.00215 164.52 1.04767 160.504 1.13873C158.518 1.18425 156.403 1.22978 154.201 1.27531H153.769L153.337 1.32084C153.035 1.36636 152.776 1.36636 152.473 1.41189C151.912 1.45742 151.308 1.50294 150.746 1.594C149.581 1.68505 148.415 1.82164 147.206 1.91269C144.831 2.14033 142.456 2.32243 139.995 2.55007C138.786 2.64112 137.577 2.7777 136.411 2.86876C135.202 2.95981 134.037 3.05087 132.828 3.23297C132.525 3.2785 132.223 3.32403 131.964 3.32403L131.144 3.46061C130.582 3.55166 130.064 3.64272 129.503 3.68825C128.726 3.82483 127.992 3.91588 127.258 4.05246C125.79 4.2801 124.322 4.46221 122.94 4.64432L123.242 3.41508C122.681 3.55166 122.076 3.68825 121.429 3.82483C120.781 3.96141 120.133 4.09799 119.443 4.23457C118.104 4.55326 116.636 4.82643 115.125 5.09959C113.614 5.37275 112.059 5.64592 110.505 5.91908C109.728 6.05566 108.907 6.19224 108.13 6.28329C107.353 6.41987 106.576 6.60198 105.755 6.73856C102.647 7.33042 99.581 7.92227 96.904 8.42307C95.5655 8.65071 94.3133 8.96939 93.2339 9.24256C92.1113 9.51572 91.1614 9.74336 90.341 9.97099C88.4843 10.3352 86.455 10.745 84.3393 11.1547C84.0802 11.2002 83.8212 11.2458 83.5621 11.2913C83.303 11.3368 83.044 11.4279 82.7417 11.4734C82.2236 11.61 81.6623 11.701 81.101 11.8376C80.0215 12.1108 78.8558 12.3384 77.7331 12.6116C76.5674 12.8847 75.4016 13.1579 74.2358 13.4311C73.6313 13.5676 73.0268 13.7042 72.4655 13.8408C71.861 13.9774 71.2565 14.114 70.652 14.2961C68.2341 14.979 65.773 15.6619 63.2687 16.4358C62.0165 16.8001 60.7644 17.2098 59.4691 17.574C58.2169 17.9838 56.9648 18.439 55.7126 18.8943C53.2083 19.8049 50.6608 20.7609 48.1565 21.717C47.5089 21.9446 46.9044 22.2178 46.2999 22.491C45.6954 22.7641 45.0909 23.0373 44.4433 23.3104C43.2343 23.8568 42.0253 24.4486 40.8164 25.0405C38.3984 26.2242 36.0237 27.3624 33.8216 28.7282C33.8216 28.7282 30.4538 29.4566 27.0859 30.1395C25.402 30.5037 23.6749 30.8224 22.4659 31.1866C21.2138 31.5053 20.3934 31.733 20.3934 31.733L18.7958 33.0077C18.7958 33.0077 18.7527 35.967 19.1413 40.3376C19.573 44.6627 20.4798 50.3536 22.3364 55.8624C23.2863 58.594 24.4089 61.3256 25.7906 63.8296C27.1723 66.3336 28.813 68.5644 30.7128 70.431C34.5124 74.1643 39.262 76.3496 45.2205 75.5756L45.3932 76.8048L49.4087 74.6651C51.9562 73.709 53.6401 72.6619 54.7627 71.979C55.8853 71.3416 56.3603 71.114 56.4035 71.7058C56.4035 71.7058 55.9717 71.8879 55.324 72.1611C54.6763 72.4342 53.856 72.844 52.9924 73.2537C51.3085 74.0277 49.6246 74.8472 49.6246 74.8472C54.6332 72.7529 51.4812 75.0293 49.9268 76.5317C51.9993 75.6211 54.0287 74.8016 55.799 74.3464C56.1876 73.9366 55.9717 73.8911 55.5399 73.9822C55.1081 74.0732 54.4605 74.3008 54.0719 74.3919C55.2808 73.5269 56.7489 72.4798 58.3033 71.5237C59.8577 70.5221 61.5848 69.6571 63.3119 69.2018C63.9595 68.9286 64.4345 68.7465 64.8231 68.6555C65.2117 68.5644 65.5139 68.5644 65.7298 68.5644C66.1616 68.61 66.3343 68.7921 66.507 68.9742C66.8524 69.3384 67.3274 69.7026 70.3498 68.6099C71.3429 68.2457 72.3359 67.8815 73.329 67.5628C74.3221 67.1986 75.3152 66.8344 76.3515 66.5612C78.3808 65.9694 80.4101 65.332 82.3963 64.7401C83.3894 64.4215 84.4257 64.1028 85.4187 63.8296L88.4843 63.0556C90.5137 62.5548 92.543 62.0085 94.5724 61.5077L95.3496 61.3256L96.1268 61.189L97.6812 60.8703L100.747 60.233L103.812 59.5956L105.324 59.2769C105.842 59.1858 106.36 59.0948 106.878 59.0037L113.052 58.0021C114.089 57.82 115.082 57.6379 116.118 57.5013L119.227 57.1371C121.299 56.9095 123.372 56.6363 125.401 56.4087C125.919 56.3176 126.437 56.3176 126.956 56.2721L128.51 56.1355L131.619 55.9079L133.173 55.7713L133.562 55.7258H133.648C133.691 55.7258 133.691 55.7258 133.691 55.7258H133.734C133.778 55.7258 133.864 55.7258 133.907 55.7258H133.993H134.037H134.08H134.166L134.555 55.8168C135.03 55.9079 135.461 55.9534 136.023 55.9079C135.505 56.4087 135.461 56.4087 135.202 56.6363C135.677 56.4087 136.023 56.3176 136.411 56.2721C136.8 56.2266 137.145 56.181 138.009 55.9989C137.059 56.4997 135.418 57.1371 134.339 57.5924C134.9 57.3648 135.332 57.1826 135.807 57.1826C136.023 57.1826 136.195 57.2282 136.282 57.2737C136.368 57.3192 136.368 57.4103 136.325 57.4558C136.282 57.5924 136.066 57.729 135.893 57.82C135.936 57.729 135.764 57.7745 135.677 57.7745Z" fill="#FDDD5D" fill-opacity="0.32"/>
<path d="M83.0938 259.062H69.2188C66.4588 259.062 63.812 257.966 61.8604 256.015C59.9089 254.063 58.8125 251.416 58.8125 248.656V186.219C58.8125 183.459 59.9089 180.812 61.8604 178.86C63.812 176.909 66.4588 175.812 69.2188 175.812H83.0938C85.8537 175.812 88.5005 176.909 90.4521 178.86C92.4036 180.812 93.5 183.459 93.5 186.219V248.656C93.5 251.416 92.4036 254.063 90.4521 256.015C88.5005 257.966 85.8537 259.062 83.0938 259.062Z" fill="url(#paint0_linear_8312_13099)"/>
<path d="M180.219 259.062H166.344C163.584 259.062 160.937 257.966 158.985 256.015C157.034 254.063 155.938 251.416 155.938 248.656V144.594C155.938 141.834 157.034 139.187 158.985 137.235C160.937 135.284 163.584 134.188 166.344 134.188H180.219C182.979 134.188 185.626 135.284 187.577 137.235C189.529 139.187 190.625 141.834 190.625 144.594V248.656C190.625 251.416 189.529 254.063 187.577 256.015C185.626 257.966 182.979 259.062 180.219 259.062Z" fill="url(#paint1_linear_8312_13099)"/>
<path d="M228.781 259.062H214.906C212.146 259.062 209.499 257.966 207.548 256.015C205.596 254.063 204.5 251.416 204.5 248.656V96.0312C204.5 93.2713 205.596 90.6245 207.548 88.6729C209.499 86.7214 212.146 85.625 214.906 85.625H228.781C231.541 85.625 234.188 86.7214 236.14 88.6729C238.091 90.6245 239.188 93.2713 239.188 96.0312V248.656C239.188 251.416 238.091 254.063 236.14 256.015C234.188 257.966 231.541 259.062 228.781 259.062Z" fill="url(#paint2_linear_8312_13099)"/>
<path d="M131.656 259.062H117.781C115.021 259.062 112.374 257.966 110.423 256.015C108.471 254.063 107.375 251.416 107.375 248.656V61.3438C107.375 58.5838 108.471 55.937 110.423 53.9854C112.374 52.0339 115.021 50.9375 117.781 50.9375H131.656C134.416 50.9375 137.063 52.0339 139.015 53.9854C140.966 55.937 142.062 58.5838 142.062 61.3438V248.656C142.062 251.416 140.966 254.063 139.015 256.015C137.063 257.966 134.416 259.062 131.656 259.062Z" fill="url(#paint3_linear_8312_13099)"/>
<defs>
<linearGradient id="paint0_linear_8312_13099" x1="58.8097" y1="259.061" x2="264.823" y2="80.5163" gradientUnits="userSpaceOnUse">
<stop stop-color="#15202B"/>
<stop offset="1" stop-color="#5B636B"/>
</linearGradient>
<linearGradient id="paint1_linear_8312_13099" x1="58.8097" y1="259.061" x2="264.823" y2="80.5163" gradientUnits="userSpaceOnUse">
<stop stop-color="#15202B"/>
<stop offset="1" stop-color="#5B636B"/>
</linearGradient>
<linearGradient id="paint2_linear_8312_13099" x1="58.8097" y1="259.061" x2="264.823" y2="80.5163" gradientUnits="userSpaceOnUse">
<stop stop-color="#15202B"/>
<stop offset="1" stop-color="#5B636B"/>
</linearGradient>
<linearGradient id="paint3_linear_8312_13099" x1="58.8097" y1="259.061" x2="264.823" y2="80.5163" gradientUnits="userSpaceOnUse">
<stop stop-color="#15202B"/>
<stop offset="1" stop-color="#5B636B"/>
</linearGradient>
</defs>
</svg>