<svg xmlns:xlink="http://www.w3.org/1999/xlink" xmlns="http://www.w3.org/2000/svg" width="228" height="288" viewBox="0 0 228 288" fill="none">
<path d="M12.0739 148.207C12.0739 148.207 12.6917 148.065 13.3536 147.971C13.9714 147.83 14.6334 147.736 14.6334 147.736C17.5901 150.841 19.4435 152.44 20.4585 153.569C21.5176 154.651 21.7382 155.262 22.003 155.78C22.2678 156.297 22.4443 156.814 23.5475 157.708C24.6066 158.602 26.5042 159.919 30.3876 161.706C32.3734 161.753 34.9329 162.506 37.9337 163.353C40.9345 164.246 44.3766 165.328 47.9511 166.128C51.5697 166.88 55.1442 167.821 58.3216 168.197C61.4989 168.668 64.1466 168.903 65.7794 168.621C65.7353 168.668 66.2649 168.809 67.0592 168.95C67.2357 168.997 67.5446 169.044 67.6329 169.044C67.7653 169.091 67.8976 169.091 68.03 169.138C68.2948 169.185 68.6037 169.279 68.9126 169.326C70.1482 169.656 71.2515 169.985 71.075 170.502C71.9134 169.703 73.2373 169.703 74.6936 169.891C76.1499 170.079 77.8268 170.408 79.4154 170.314C80.5628 169.891 78.6211 169.75 77.7826 169.138C77.7826 169.138 78.2239 169.138 78.93 169.138C79.592 169.138 80.4745 169.091 81.3571 169.091C83.1223 169.044 84.8875 168.997 84.8875 168.997C87.5794 169.703 88.1972 170.785 85.2405 170.785C86.3879 170.879 87.8 171.02 89.4328 171.161C91.0656 171.302 92.9191 171.443 94.949 171.584C98.9207 171.866 103.643 172.243 108.894 172.666C114.013 173.089 119.485 173.607 124.957 174.265C130.385 174.924 135.857 175.818 141.108 176.946C146.36 178.075 151.346 179.439 155.804 181.039C160.305 182.638 164.276 184.378 167.63 186.213C168.469 186.636 169.263 187.154 170.057 187.577C170.455 187.765 170.808 188 171.161 188.235C171.514 188.471 171.867 188.706 172.22 188.894C172.926 189.317 173.544 189.788 174.206 190.211C174.514 190.399 174.823 190.634 175.132 190.822L175.353 190.964L175.441 191.011C175.485 191.058 175.529 191.105 175.618 191.105C175.706 191.199 175.794 191.246 175.882 191.293C175.971 191.34 176.015 191.387 176.059 191.434C176.103 191.481 176.103 191.481 176.147 191.481C176.191 191.481 176.147 191.481 176.147 191.481C176.28 191.34 176.412 191.152 176.544 191.011C176.721 190.822 176.897 190.634 177.03 190.493C177.206 190.305 177.383 190.164 177.559 189.976C177.736 189.788 177.868 189.647 178.045 189.458C178.354 189.129 178.707 188.8 179.016 188.471C179.678 187.859 180.295 187.295 180.869 186.73C181.178 186.448 181.443 186.213 181.752 185.978C181.884 185.837 182.061 185.742 182.193 185.601C182.325 185.507 182.458 185.366 182.59 185.272C183.12 184.849 183.605 184.425 184.135 184.049C183.605 184.425 183.031 184.896 182.414 185.413C181.752 185.978 180.957 186.589 180.251 187.295C179.898 187.671 179.457 188.047 179.06 188.424C178.663 188.8 178.265 189.223 177.868 189.647C177.692 189.882 177.471 190.07 177.25 190.258C177.074 190.446 176.721 190.775 176.853 190.681L176.897 190.634C176.942 190.399 176.677 189.788 176.942 188.753C177.912 188.753 178.133 189.176 178.133 189.317V189.364L178.177 189.317C178.707 188.753 179.236 188.235 179.766 187.765C180.251 187.295 180.737 186.824 181.222 186.401C181.443 186.213 181.708 185.978 181.928 185.789L182.281 185.507L182.59 185.225C182.987 184.896 183.517 184.425 184.311 183.908C184.399 183.861 184.532 183.767 184.576 183.72C184.664 183.673 184.752 183.579 184.841 183.532C185.017 183.391 185.194 183.249 185.414 183.108C185.812 182.826 186.297 182.544 186.738 182.262C188.415 181.18 190.401 180.286 191.769 179.957C193.181 179.628 193.534 179.769 193.181 179.675C193.137 179.675 193.093 179.675 193.049 179.628H193.005C192.872 179.675 194.284 179.251 193.667 179.439V179.486L193.622 179.533L193.446 179.769C193.225 180.333 193.093 179.769 192.961 179.628V179.581H192.916L192.828 179.533L192.652 179.486C192.563 179.439 192.431 179.392 192.343 179.345C192.078 179.251 191.946 179.11 191.681 179.016C191.681 179.016 191.593 178.969 191.46 178.875C191.328 178.781 191.151 178.687 190.975 178.593C190.798 178.452 190.622 178.358 190.489 178.263C190.357 178.169 190.225 178.075 190.225 178.075C190.225 178.075 190.048 177.934 189.783 177.746C189.651 177.652 189.474 177.511 189.298 177.37C189.121 177.229 188.945 177.088 188.768 176.899C188.371 176.57 188.018 176.241 187.709 175.959C187.4 175.676 187.224 175.488 187.224 175.488C185.503 173.748 184.002 171.772 182.855 170.079C182.723 169.891 182.59 169.656 182.458 169.467L182.369 169.326L182.325 169.232L182.281 169.185C181.575 167.351 183.87 173.23 180.693 165.093H180.472C180.163 165.093 179.854 165.093 179.589 165.093C179.457 165.093 179.325 165.093 179.148 165.093H178.927C178.883 165.093 178.839 165.093 178.839 165.093L178.751 165.14L178.618 165.234L178.663 165.187C178.707 165.14 178.751 165.14 178.795 165.093C178.972 164.999 179.148 164.905 179.325 164.858H179.369V164.905V164.952C179.369 164.999 179.325 165.046 179.325 165.046C179.325 165.093 179.28 165.093 179.236 165.14C179.192 165.187 179.148 165.281 179.104 165.328C179.06 165.375 179.016 165.422 178.972 165.422C178.883 165.469 178.839 165.516 178.795 165.516C178.751 165.516 178.663 165.516 178.574 165.516C178.53 165.516 178.442 165.516 178.398 165.516C178.31 165.516 178.221 165.516 178.089 165.516C177.957 165.516 177.824 165.516 177.648 165.563C177.427 165.563 177.206 165.61 176.897 165.657C176.235 165.751 175.397 165.893 173.897 166.034C172.22 166.316 170.41 166.692 168.645 167.021C167.719 167.21 166.836 167.398 165.997 167.539C165.159 167.727 164.321 167.868 163.57 168.056C161.982 168.386 160.525 168.621 159.157 168.762C157.745 168.903 156.333 168.856 154.921 168.668C155.759 168.668 158.054 169.75 155.362 170.173C154.965 168.668 148.125 171.208 146.757 169.609C145.433 169.703 142.521 169.562 140.314 169.75C138.108 169.891 136.563 170.314 138.064 171.396C136.607 170.314 128.443 169.514 133.342 168.809C130.606 168.621 127.914 168.197 125.884 168.527L129.458 169.279C120.059 169.138 114.763 167.257 108.276 168.903C108.276 168.903 109.203 169.138 110.085 169.373C110.968 169.609 111.895 169.844 111.895 169.844C110.438 169.797 109.026 169.797 107.702 169.75C106.379 169.703 105.143 169.609 103.996 169.514C101.701 169.279 99.8915 168.762 98.7 167.68C98.7 167.68 100.245 167.539 101.789 167.398C103.334 167.257 104.878 167.163 104.878 167.163C99.8915 167.069 95.8757 167.069 91.9923 167.257C91.0215 167.304 90.0506 167.351 89.1239 167.445C88.1531 167.492 87.1822 167.633 86.2114 167.727C85.2405 167.821 84.2255 167.962 83.2106 168.103C82.1956 168.244 81.1365 168.433 80.0333 168.621L83.1664 168.527C81.7984 168.856 79.6802 169.185 76.9883 169.609C75.6644 169.797 74.164 170.032 72.5754 170.314C70.9867 170.549 69.2657 170.879 67.4564 171.161C63.8377 171.772 59.8661 172.572 55.6738 173.513C53.5997 173.983 51.4374 174.548 49.275 175.112C48.1718 175.394 47.1127 175.723 46.0094 176.053L45.6123 176.194L45.1268 176.335L43.9795 176.664C43.5823 176.758 43.1851 176.899 42.788 176.993C42.3908 177.135 41.9937 177.276 41.5524 177.37C39.9196 177.887 38.2868 178.452 36.6981 178.969C35.9038 179.251 35.1095 179.486 34.271 179.769C33.4767 180.051 32.7265 180.38 31.9321 180.709C30.3876 181.321 28.8872 181.932 27.3427 182.544C26.9455 182.685 26.5925 182.826 26.1953 183.014C25.8423 183.155 25.4892 183.344 25.0921 183.532C24.386 183.861 23.6799 184.237 22.9739 184.566C21.5617 185.272 20.1937 185.931 18.8257 186.589C18.4726 186.73 18.1637 186.918 17.8548 187.107C17.5459 187.295 17.237 187.483 16.884 187.671C16.2662 188.047 15.6484 188.377 15.0305 188.753C13.7949 189.458 12.6034 190.164 11.4119 190.87C10.3087 191.622 9.24959 192.375 8.19048 193.08C7.1755 193.786 6.16053 194.491 5.18968 195.15C4.9249 195.291 4.70425 195.479 4.48361 195.667C4.26296 195.855 4.04231 195.997 3.82166 196.185C3.38037 196.514 2.98321 196.89 2.54191 197.22C1.70345 197.878 0.953249 198.537 0.158918 199.148C-0.194118 199.477 -0.591284 199.76 -0.944319 200.042C-1.29735 200.324 -1.56213 200.653 -1.87103 200.983C-3.06253 202.206 -4.07751 203.24 -4.91597 204.181C-5.35727 204.652 -5.75443 205.075 -6.06333 205.451C-6.32811 205.874 -6.59289 206.251 -6.76941 206.533C-6.76941 206.533 -6.41637 206.298 -5.88682 205.969C-5.40139 205.639 -4.56293 205.216 -3.7686 204.84C-2.22407 204.04 -0.635414 203.287 -0.635414 203.287C-0.635414 203.287 -1.12083 203.805 -1.78278 204.51C-2.13581 204.887 -2.53298 205.31 -2.97427 205.78C-3.19492 206.016 -3.41557 206.251 -3.63621 206.486C-3.81273 206.721 -4.03338 207.003 -4.2099 207.239C-5.75443 209.261 -7.34309 211.331 -7.34309 211.331C-6.9018 210.907 -7.25483 209.496 -7.60786 208.038C-7.91677 206.58 -8.18155 205.122 -7.51961 204.793C-8.7111 206.063 -10.2556 207.756 -12.1973 209.779C-13.0799 210.813 -13.9625 211.989 -14.8892 213.212C-15.8159 214.482 -16.6985 215.846 -17.6253 217.399C-20.0965 221.585 -22.4795 226.806 -23.6269 233.344C-24.2005 236.59 -24.4212 240.165 -24.1564 243.834C-23.8916 247.503 -23.0973 251.313 -21.7293 254.699C-20.3613 258.133 -18.5961 261.096 -16.4338 263.919C-14.2714 266.741 -11.7119 269.422 -8.84349 271.868L-7.74025 272.762L-7.2107 273.232C-7.03418 273.373 -6.81354 273.514 -6.63702 273.656L-4.29815 275.396L-1.82691 277.042C-0.988449 277.607 -0.105858 278.077 0.732603 278.594C4.21883 280.617 7.92571 282.452 11.8091 284.051C15.7366 285.65 19.7965 286.967 23.9447 288.096C25.0038 288.378 26.0188 288.613 27.0779 288.896C28.137 289.131 29.1961 289.366 30.2552 289.601C31.3143 289.836 32.3734 290.025 33.4325 290.213C34.4916 290.401 35.5066 290.636 36.5657 290.777C37.6248 290.918 38.6839 291.106 39.6989 291.248C40.758 291.389 41.773 291.577 42.788 291.671C43.803 291.765 44.8621 291.906 45.877 292C46.892 292.094 47.907 292.235 48.8779 292.329C49.8928 292.423 50.8637 292.518 51.8345 292.565C52.7612 292.659 53.9086 292.753 54.394 292.753C55.6297 292.847 56.8212 292.894 57.9685 292.988C67.2798 293.505 74.2964 293.552 77.8268 293.788C84.4903 294.587 79.0624 296.328 78.9741 296.563C83.034 296.234 83.8725 295.763 84.5786 295.434C85.2847 295.058 85.8583 294.822 89.2563 294.775C91.1098 295.011 88.9033 296.045 87.8883 296.281C90.845 295.998 93.6251 296.469 93.8016 295.716C90.0948 295.293 91.5952 293.223 90.0065 292C90.0065 292 92.1689 291.953 94.3312 291.953C96.4935 291.906 98.6118 291.859 98.6118 291.859L98.2587 293.129C100.156 293.082 102.936 289.507 111.277 289.742C125.354 289.554 140.579 288.19 154.656 287.438C154.48 288.19 151.567 288.849 148.61 289.507C150.508 289.413 153.376 289.037 155.142 289.413C151.655 288.331 161.011 288.096 158.319 287.72C168.425 283.91 181.972 285.556 190.931 282.64C191.24 281.229 195.123 268.999 198.83 256.722C202.537 244.445 206.023 232.074 205.846 230.428C208.627 230.193 211.363 229.958 212.201 230.146C211.407 229.44 205.979 229.675 203.11 230.381L202.757 232.168C196.182 233.438 201.125 231.275 194.637 232.027C194.152 230.616 200.11 229.77 205.317 229.064C200.595 229.393 195.785 228.782 194.02 230.569C189.518 230.381 194.373 228.782 188.989 228.688C185.238 229.487 180.34 231.322 175.882 230.851L175.927 230.616C165.203 230.052 159.819 234.144 149.978 233.391L150.993 232.827C147.507 232.263 140.8 233.862 134.577 233.344C136.342 233.533 137.975 234.473 134.224 234.85C127.031 234.379 122.221 235.602 116.97 234.755L112.027 236.449C109.026 236.59 104.966 236.778 100.112 237.013C95.2579 237.248 89.6976 237.531 83.7401 237.766C80.7835 237.86 77.6944 237.954 74.5612 238.001C71.428 238.048 68.2507 238.048 65.0292 238.001C63.4406 238.001 61.8078 237.907 60.2191 237.86C59.4248 237.813 58.6305 237.766 57.792 237.766L57.1742 237.719H57.0859H57.0418H56.9977H56.8653C56.5564 237.766 56.2475 237.766 55.8944 237.813C55.2325 237.86 54.4382 237.813 53.688 237.672C52.8936 237.531 52.0993 237.248 51.4374 236.825C51.0843 236.59 50.8637 236.308 50.7313 235.931C50.5989 235.602 50.5548 235.273 50.5989 234.944C50.643 234.332 50.9519 233.909 51.1726 233.627C51.4815 233.344 51.5697 233.25 51.658 233.203L51.8786 233.391C52.5406 232.639 53.7321 231.792 55.3208 231.181C55.4973 231.087 55.7179 231.04 55.9386 230.945L56.1151 230.898C56.1592 230.898 56.1592 230.898 56.2033 230.851H56.2475H56.3357C56.8653 230.71 57.3948 230.569 57.9685 230.475C60.7487 229.817 63.6612 229.252 66.662 228.782C72.6636 227.794 79.0624 227.23 85.6818 226.947C98.8765 226.383 113.174 226.947 126.943 227.371C133.827 227.559 140.623 227.7 147.022 227.653C153.465 227.606 159.51 227.371 164.982 226.947C166.704 227.23 168.557 227.371 170.543 227.465C172.573 227.512 174.823 227.465 177.162 227.324C179.501 227.182 182.016 226.853 184.532 226.477C187.047 226.101 189.607 225.536 192.034 224.972C190.666 225.207 189.739 225.254 189.21 225.207C188.68 225.16 188.503 225.019 188.636 224.831C188.768 224.642 189.165 224.407 189.827 224.172C190.136 224.031 190.533 223.89 190.975 223.749C191.416 223.608 191.857 223.467 192.387 223.325C193.314 223.043 194.152 222.808 194.991 222.526C195.829 222.244 196.579 221.961 197.329 221.679C198.83 221.068 200.065 220.597 201.213 220.033C201.786 219.751 202.272 219.515 202.757 219.28C203.243 219.045 203.684 218.81 204.081 218.575C204.478 218.339 204.831 218.151 205.14 217.963C205.493 217.775 205.714 217.634 206.067 217.399C207.391 216.552 208.053 216.035 208.494 215.705C208.715 215.517 208.847 215.423 208.935 215.282C208.98 215.235 209.024 215.188 209.068 215.141C209.068 215.094 209.068 215.094 209.112 215.047C209.156 214.812 209.244 214.529 210.303 213.589L210.921 213.118H210.965L211.01 213.071L211.098 212.977C211.186 212.93 211.23 212.836 211.318 212.789C211.451 212.648 211.627 212.507 211.804 212.366C212.157 212.083 212.51 211.754 212.907 211.378C213.304 211.002 213.746 210.578 214.231 210.155C214.716 209.685 215.246 209.167 215.82 208.556C216.967 207.38 218.291 205.874 219.835 203.852C221.336 201.782 223.057 199.148 224.69 195.432C224.91 194.915 225.131 194.35 225.352 193.739C225.44 193.457 225.572 193.127 225.66 192.845C225.705 192.657 225.793 192.469 225.837 192.328C225.925 192.092 225.969 191.904 226.058 191.669C226.19 191.246 226.322 190.775 226.455 190.352C226.499 190.117 226.587 189.882 226.631 189.694L226.675 189.505V189.458V189.364C226.675 189.27 226.72 189.176 226.764 189.035L226.808 188.894C226.896 188.518 226.984 188.188 227.028 187.812C227.293 186.401 227.514 184.896 227.69 183.344C227.823 181.791 227.867 180.192 227.823 178.546C227.779 177.746 227.735 176.899 227.646 176.1C227.602 175.676 227.558 175.253 227.514 174.83L227.426 174.218L227.337 173.607C227.205 172.807 227.029 172.007 226.852 171.161C226.764 170.737 226.675 170.314 226.587 169.938C226.499 169.562 226.367 169.185 226.278 168.809C226.058 168.056 225.837 167.257 225.572 166.504C225.307 165.752 225.043 165.093 224.734 164.34C224.16 162.835 223.498 161.612 222.836 160.295C222.483 159.59 222.13 159.072 221.777 158.461C221.424 157.896 221.027 157.238 220.674 156.673C219.924 155.591 219.129 154.415 218.379 153.475C217.982 152.957 217.585 152.44 217.188 151.97C216.79 151.499 216.393 151.029 215.952 150.558C215.555 150.088 215.114 149.665 214.716 149.241C214.319 148.818 213.878 148.348 213.437 147.971C211.76 146.325 210.039 144.82 208.229 143.409C207.788 143.079 207.347 142.703 206.861 142.374L206.508 142.139L206.332 141.998L206.199 141.903L205.626 141.527C204.876 141.01 204.081 140.445 203.331 139.928C197.109 135.695 190.048 131.79 182.678 128.545C175.265 125.346 167.542 122.759 159.952 120.784C144.683 116.785 129.767 115.045 117.852 113.916C111.895 113.352 106.599 112.928 102.186 112.552C100.024 112.364 98.0381 112.176 96.2729 112.035C94.5077 111.894 93.0514 111.705 91.8158 111.564C86.432 112.27 80.5628 112.035 74.9142 111.564C74.2082 111.517 73.5021 111.423 72.796 111.376L72.2665 111.329H72.1341C72.0458 111.329 71.9576 111.329 71.8693 111.329C71.5163 111.329 71.1632 111.282 70.8102 111.282C70.1041 111.282 69.3981 111.329 68.5596 111.517C68.5596 111.517 68.692 111.423 68.8244 111.329C68.9567 111.235 69.0891 111.141 69.0891 111.141C68.692 111.188 68.1624 111.141 67.4564 111C66.7503 110.859 65.9559 110.577 65.1616 110.059C64.3673 109.542 63.573 108.789 63.1317 107.754C62.6462 106.719 62.6021 105.449 62.9993 104.273C63.3964 103.145 64.0584 102.11 64.8086 101.31C65.5588 100.463 66.309 99.7579 67.0151 99.1935C67.3681 98.9112 67.7211 98.629 68.03 98.3938C68.2066 98.2527 68.3389 98.1586 68.4713 98.0175C68.5596 97.9705 68.6037 97.9234 68.692 97.8294C68.7802 97.7823 68.8685 97.6882 68.8685 97.6882L68.9126 97.6412L68.9568 97.5942C68.9568 97.5942 68.9567 97.5942 69.045 97.5471C69.2657 97.359 69.5304 97.2179 69.7511 97.0297C70.1924 96.7005 70.6337 96.4182 71.0308 96.136C71.8252 95.5716 72.5312 95.0541 73.1049 94.6308L71.6928 95.1953C75.4438 92.0438 77.5179 91.1971 79.3713 90.6797C81.2689 90.1623 82.9899 90.0211 86.8292 88.5159C86.3438 88.1396 86.4762 87.4811 86.9616 86.7756C87.447 86.0229 88.3296 85.1763 89.3887 84.3296C90.4478 83.4829 91.6834 82.6363 92.8749 81.8837C94.0664 81.1311 95.1697 80.5196 95.964 80.0962L96.0081 80.6136C96.6259 80.2844 97.2879 79.9081 98.0822 79.4377C98.8324 79.0144 99.715 78.544 100.598 78.0266C101.48 77.5092 102.451 76.9447 103.466 76.3803C104.481 75.8158 105.54 75.2514 106.599 74.6399C107.702 74.0284 108.806 73.4169 109.909 72.8525C111.056 72.288 112.16 71.6765 113.307 71.1121C115.557 69.9832 117.852 68.9954 119.926 68.1487L119.97 69.4658C123.28 67.5372 128.355 65.6557 133.253 64.0564C135.681 63.3038 138.108 62.5983 140.226 61.9868C142.344 61.4223 144.153 60.9049 145.433 60.5286C151.435 59.2116 159.157 57.9886 167.365 56.8127C169.44 56.5304 171.514 56.1541 173.588 55.8719C175.662 55.5897 177.78 55.2134 179.898 54.8841C182.016 54.5549 184.091 54.1786 186.165 53.8023C187.18 53.6141 188.239 53.426 189.254 53.1908C189.739 53.0967 190.269 52.9556 190.754 52.8615C191.195 52.7674 191.637 52.6734 192.078 52.5793C192.078 52.5793 192.21 52.6263 192.475 52.6734C192.74 52.7204 193.049 52.8615 193.446 53.0026C194.196 53.2849 195.123 53.6612 195.785 54.0845C196.447 54.5078 196.888 54.9782 197.02 55.3545C197.109 55.5427 197.109 55.6838 197.109 55.7778C197.109 55.8719 197.109 55.919 197.109 55.919C197.109 55.919 197.197 55.8719 197.285 55.7778C197.329 55.7308 197.374 55.6838 197.418 55.6838C197.462 55.6838 197.462 55.6367 197.462 55.6367C197.462 55.6367 197.638 54.9782 198.035 53.8493C198.433 52.7204 199.006 51.1211 199.801 49.1926C200.198 48.2518 200.683 47.217 201.213 46.1352C201.742 45.0533 202.316 43.9714 202.934 42.7955C204.169 40.4907 205.582 38.0917 206.95 35.5988C207.7 34.3287 208.362 33.0587 209.024 31.6946C209.686 30.3306 210.259 28.9665 210.789 27.6024C211.318 26.2383 211.76 24.8272 212.113 23.416C212.201 23.0868 212.289 22.7105 212.378 22.3812C212.422 22.1931 212.466 22.052 212.466 21.8638C212.51 21.6757 212.51 21.4875 212.554 21.2994C212.642 20.5468 212.686 19.8412 212.686 19.0886C212.686 18.336 212.642 17.5834 212.51 16.8308C212.378 16.0782 212.201 15.3256 211.98 14.573C211.76 13.8204 211.451 13.0678 211.054 12.3152C210.656 11.5626 210.215 10.81 209.686 10.1515C209.156 9.44591 208.538 8.74035 207.832 8.08182C207.479 7.75256 207.126 7.4233 206.729 7.09404C206.332 6.76478 205.935 6.48255 205.493 6.20032C204.655 5.58884 203.552 5.07142 202.404 4.55401C201.301 4.08364 200.11 3.6603 198.918 3.284L199.624 2.06102C199.624 2.06102 199.139 2.06102 198.388 2.01399C197.991 2.01399 197.594 2.01399 197.153 2.01399C196.712 2.01399 196.27 2.01399 195.785 2.01399C194.902 2.06102 194.02 2.06102 193.358 2.10806C192.74 2.1551 192.299 2.20214 192.299 2.20214C191.769 2.20214 191.328 2.20214 190.886 2.20214C190.445 2.20214 190.004 2.20214 189.607 2.24917C188.857 2.29621 188.106 2.34325 187.489 2.43733C186.871 2.5314 186.297 2.62547 185.856 2.71955C185.414 2.81362 184.929 2.9077 184.62 2.95474C183.296 3.284 182.723 3.37807 182.855 2.71955C182.855 2.71955 183.34 2.67251 184.091 2.57844C184.488 2.5314 184.929 2.48436 185.414 2.43733C185.944 2.39029 186.474 2.34325 187.047 2.29621C187.356 2.24917 187.621 2.24918 187.93 2.20214C188.239 2.1551 188.503 2.1551 188.812 2.1551C189.386 2.10806 189.916 2.06102 190.401 2.06102C190.886 2.01399 191.284 2.01399 191.593 2.01399C191.901 2.01399 192.078 2.01399 192.078 2.01399C191.063 2.01399 190.357 2.01399 189.783 2.01399C189.254 2.01399 188.857 1.96695 188.592 1.96695C188.062 1.87288 188.106 1.73176 188.459 1.54361C189.121 1.16731 191.063 0.6499 192.696 0.226562C190.931 0.226562 189.43 0.320637 188.018 0.367675C187.356 0.367675 186.65 0.414711 186.076 0.414711C185.767 0.414711 185.503 0.414711 185.194 0.414711C184.885 0.414711 184.62 0.414712 184.399 0.367675C183.87 0.696937 184.091 0.791012 184.576 0.83805C185.061 0.885087 185.9 0.83805 186.385 0.932125C185.944 1.0262 185.503 1.16731 185.061 1.30842C184.62 1.44954 184.179 1.59065 183.738 1.73176C182.855 2.01399 181.928 2.29621 180.957 2.57844C179.986 2.86066 179.016 3.09585 178.045 3.23696C177.074 3.42511 176.059 3.51919 175.088 3.51919C172.131 3.89549 171.955 3.42511 171.646 2.95474C171.337 2.48436 170.94 2.01399 167.454 2.57844C149.537 5.44772 131.576 9.25776 113.925 14.573C105.099 17.2071 96.3612 20.2645 87.6676 23.6512C85.5053 24.4979 83.343 25.3916 81.1806 26.2853C80.1215 26.7557 79.0183 27.179 77.9592 27.6494C76.9001 28.1198 75.7968 28.5902 74.7377 29.1076C70.4572 30.9891 66.1325 33.0587 61.6754 35.3636C60.6604 35.3165 61.6313 34.8462 62.558 34.0936C57.3066 37.0569 52.1876 39.9262 47.1568 43.1718C45.9212 43.9714 44.6414 44.8181 43.4058 45.6177C42.1702 46.4644 40.9345 47.3581 39.6989 48.2518L38.7722 48.9574L37.2718 50.0393C36.2568 50.7919 35.3301 51.4974 34.4475 52.2971L31.7556 54.5549L30.3876 55.6838C30.167 55.8719 29.9463 56.0601 29.7257 56.2482L29.1078 56.8597C26.9896 58.4119 25.4892 59.3057 24.3419 59.9171C23.2386 60.5286 22.4884 60.9049 21.6941 61.2812C22.0913 61.0931 21.2087 62.1279 19.3994 64.0564C19.267 64.1976 19.1787 64.2916 19.0463 64.4327C18.9139 64.5739 18.8257 64.715 18.6933 64.8561C18.4727 65.1383 18.2079 65.4205 17.9431 65.7498C17.4135 66.3613 16.8399 67.0668 16.222 67.7724C15.9131 68.1487 15.6042 68.525 15.2512 68.9013C15.0747 69.0895 14.8982 69.2776 14.7658 69.5128C14.5892 69.7009 14.4569 69.9361 14.2804 70.1243C13.6625 70.971 12.9565 71.8647 12.2504 72.8054C10.75 74.6399 9.51437 76.8036 8.0581 79.0614C6.60182 81.3192 5.3662 83.7652 4.1747 86.3052C2.98321 88.8922 1.96823 91.5734 1.08564 94.3486C0.864992 95.0542 0.644341 95.7597 0.467823 96.4653C0.291306 97.1708 0.114788 97.8764 -0.0617294 98.582C-0.370636 99.9931 -0.679539 101.451 -0.900187 102.909C-1.38561 105.826 -1.60626 108.789 -1.60626 111.705C-1.60626 114.622 -1.34148 117.538 -0.900187 120.36C-0.0617275 126.005 1.74758 131.085 3.68928 135.224C4.70425 137.247 5.71923 139.081 6.69008 140.681C7.66093 142.233 8.58765 143.55 9.42611 144.632C9.82328 145.149 10.1763 145.666 10.5294 146.09C10.8824 146.513 11.1472 146.842 11.4119 147.172C11.7208 147.783 12.0298 148.112 12.0739 148.207Z" fill="#D2F091" fill-opacity="0.32"/>
<path d="M172.23 99.3937C171.28 98.4369 170.149 97.6781 168.904 97.1613C167.658 96.6445 166.323 96.3798 164.975 96.3828H144.475V91.2578C144.475 81.7432 140.695 72.6182 133.967 65.8904C127.239 59.1625 118.114 55.3828 108.6 55.3828C99.085 55.3828 89.96 59.1625 83.2322 65.8904C76.5043 72.6182 72.7246 81.7432 72.7246 91.2578V96.3828H52.2246C49.5061 96.3828 46.899 97.4627 44.9768 99.385C43.0545 101.307 41.9746 103.914 41.9746 106.633V175.82C41.9746 188.312 52.5449 198.883 65.0371 198.883H152.162C158.205 198.885 164.008 196.522 168.331 192.3C170.507 190.225 172.24 187.73 173.424 184.966C174.609 182.203 175.221 179.228 175.225 176.221V106.633C175.229 105.288 174.966 103.956 174.452 102.713C173.938 101.471 173.183 100.342 172.23 99.3937V99.3937ZM82.9746 91.2578C82.9746 84.4616 85.6744 77.9438 90.48 73.1382C95.2856 68.3326 101.803 65.6328 108.6 65.6328C115.396 65.6328 121.914 68.3326 126.719 73.1382C131.525 77.9438 134.225 84.4616 134.225 91.2578V96.3828H82.9746V91.2578ZM144.475 122.008C144.475 131.522 140.695 140.647 133.967 147.375C127.239 154.103 118.114 157.883 108.6 157.883C99.085 157.883 89.96 154.103 83.2322 147.375C76.5043 140.647 72.7246 131.522 72.7246 122.008V116.883C72.7246 115.524 73.2646 114.22 74.2257 113.259C75.1868 112.298 76.4904 111.758 77.8496 111.758C79.2088 111.758 80.5124 112.298 81.4735 113.259C82.4347 114.22 82.9746 115.524 82.9746 116.883V122.008C82.9746 128.804 85.6744 135.322 90.48 140.127C95.2856 144.933 101.803 147.633 108.6 147.633C115.396 147.633 121.914 144.933 126.719 140.127C131.525 135.322 134.225 128.804 134.225 122.008V116.883C134.225 115.524 134.765 114.22 135.726 113.259C136.687 112.298 137.99 111.758 139.35 111.758C140.709 111.758 142.012 112.298 142.974 113.259C143.935 114.22 144.475 115.524 144.475 116.883V122.008Z" fill="url(#paint0_linear_8312_13083)"/>
<defs>
<linearGradient id="paint0_linear_8312_13083" x1="41.9725" y1="198.882" x2="185.08" y2="65.9961" gradientUnits="userSpaceOnUse">
<stop stop-color="#15202B"/>
<stop offset="1" stop-color="#5B636B"/>
</linearGradient>
</defs>
</svg>