<svg width="14" height="12" viewBox="0 0 14 12" fill="none" xmlns="http://www.w3.org/2000/svg">
<path fill-rule="evenodd" clip-rule="evenodd" d="M1.75 1.5C1.33579 1.5 1 1.83579 1 2.25V9.75C1 10.1642 1.33579 10.5 1.75 10.5H12.25C12.6642 10.5 13 10.1642 13 9.75V2.25C13 1.83579 12.6642 1.5 12.25 1.5H1.75ZM0 2.25C0 1.2835 0.783502 0.5 1.75 0.5H12.25C13.2165 0.5 14 1.2835 14 2.25V9.75C14 10.7165 13.2165 11.5 12.25 11.5H1.75C0.783502 11.5 0 10.7165 0 9.75V2.25Z" fill="white"/>
<path fill-rule="evenodd" clip-rule="evenodd" d="M2.10532 2.69303C2.27486 2.47506 2.589 2.43579 2.80697 2.60532L7 5.86657L11.193 2.60532C11.411 2.43579 11.7251 2.47506 11.8947 2.69303C12.0642 2.911 12.0249 3.22514 11.807 3.39468L7.30697 6.89468C7.12642 7.03511 6.87358 7.03511 6.69303 6.89468L2.19303 3.39468C1.97506 3.22514 1.93579 2.911 2.10532 2.69303Z" fill="white"/>
</svg>
