<svg width="32" height="32" viewBox="0 0 32 32" fill="none" xmlns="http://www.w3.org/2000/svg">
<g clip-path="url(#clip0_4899_11486)">
<path d="M31.9387 5.83968C30.7587 6.37145 29.4987 6.73372 28.172 6.89913C29.524 6.06386 30.564 4.74742 31.056 3.1767C29.788 3.9354 28.3827 4.48768 26.8867 4.79526C25.692 3.48428 23.9893 2.66406 22.0987 2.66406C18.476 2.66406 15.5387 5.67564 15.5387 9.38576C15.5387 9.91889 15.5987 10.4315 15.708 10.9223C10.2547 10.6585 5.42133 7.97361 2.18667 3.91489C1.61733 4.90189 1.29867 6.04884 1.29867 7.2983C1.29867 9.63592 2.45867 11.6906 4.216 12.8976C3.14 12.8621 2.128 12.5586 1.24533 12.0556V12.139C1.24533 15.3993 3.50267 18.1183 6.50667 18.7377C5.956 18.8894 5.37467 18.9714 4.77867 18.9714C4.36 18.9714 3.95867 18.9303 3.55733 18.8538C4.39867 21.5237 6.81733 23.4703 9.696 23.525C7.456 25.3281 4.61733 26.4026 1.56 26.4026C1.04 26.4026 0.521333 26.3711 0 26.311C2.91867 28.2166 6.35733 29.3307 10.076 29.3307C22.148 29.3307 28.7413 19.0835 28.7413 10.2114C28.7413 9.92573 28.7413 9.63729 28.7213 9.35021C30.0027 8.40833 31.1213 7.21764 32.0013 5.86701L31.9387 5.83968Z" fill="white"/>
</g>
<defs>
<clipPath id="clip0_4899_11486">
<rect width="32" height="32" fill="white"/>
</clipPath>
</defs>
</svg>
