<svg width="32" height="32" viewBox="0 0 32 32" fill="none" xmlns="http://www.w3.org/2000/svg">
<path d="M0.0820312 31.9872L2.33045 23.7767C0.939616 21.369 0.208358 18.6372 0.210452 15.8567C0.210452 7.11984 7.32308 0.0156251 16.0589 0.0156251C18.1409 0.0153485 20.2026 0.425277 22.126 1.222C24.0496 2.01871 25.7973 3.1866 27.2694 4.65894C28.7414 6.13129 29.909 7.87924 30.7053 9.80293C31.5016 11.7266 31.9112 13.7884 31.9105 15.8704C31.9105 24.6072 24.7968 31.7125 16.0631 31.7125H16.0557C13.41 31.7122 10.8067 31.0492 8.48308 29.7841L0.0820312 31.9872ZM8.87256 26.9156L9.35361 27.2009C11.3833 28.403 13.6989 29.0371 16.0578 29.0367C23.321 29.0367 29.2262 23.1293 29.2294 15.8693C29.2306 12.3767 27.8447 9.02661 25.3765 6.55548C22.9083 4.08435 19.5599 2.69448 16.0673 2.69142C8.80413 2.69142 2.89361 8.59773 2.89045 15.8577C2.88659 18.3371 3.58473 20.767 4.90413 22.8662L5.21992 23.3641L3.88729 28.223L8.87256 26.9156Z" fill="white"/>
<path d="M0.0820312 31.9872L2.33045 23.7767C0.939616 21.369 0.208358 18.6372 0.210452 15.8567C0.210452 7.11984 7.32308 0.0156251 16.0589 0.0156251C18.1409 0.0153485 20.2026 0.425277 22.126 1.222C24.0496 2.01871 25.7973 3.1866 27.2694 4.65894C28.7414 6.13129 29.909 7.87924 30.7053 9.80293C31.5016 11.7266 31.9112 13.7884 31.9105 15.8704C31.9105 24.6072 24.7968 31.7125 16.0631 31.7125H16.0557C13.41 31.7122 10.8067 31.0492 8.48308 29.7841L0.0820312 31.9872ZM8.87256 26.9156L9.35361 27.2009C11.3833 28.403 13.6989 29.0371 16.0578 29.0367C23.321 29.0367 29.2262 23.1293 29.2294 15.8693C29.2306 12.3767 27.8447 9.02661 25.3765 6.55548C22.9083 4.08435 19.5599 2.69448 16.0673 2.69142C8.80413 2.69142 2.89361 8.59773 2.89045 15.8577C2.88659 18.3371 3.58473 20.767 4.90413 22.8662L5.21992 23.3641L3.88729 28.223L8.87256 26.9156Z" fill="url(#paint0_linear_6202_12552)"/>
<path fill-rule="evenodd" clip-rule="evenodd" d="M12.1064 9.23275C11.8096 8.57275 11.497 8.56011 11.2149 8.54854C10.9843 8.53906 10.7201 8.53906 10.4559 8.53906C10.2558 8.54482 10.059 8.59182 9.87789 8.67714C9.69676 8.76244 9.53519 8.88423 9.4033 9.03485C9.03488 9.43064 8.01172 10.3885 8.01172 12.3369C8.01172 14.2854 9.43067 16.1675 9.62856 16.4327C9.82646 16.698 12.3654 20.8222 16.3928 22.4096C19.737 23.7285 20.418 23.4622 21.1443 23.4001C21.8707 23.338 23.4864 22.4422 23.817 21.518C24.1475 20.5938 24.1464 19.8001 24.0475 19.6348C23.9485 19.4696 23.6843 19.3706 23.2885 19.1727C22.8928 18.9748 20.9464 18.0148 20.5833 17.8843C20.2201 17.7538 19.9517 17.6864 19.6917 18.0833C19.4317 18.4801 18.6696 19.3706 18.438 19.6348C18.2064 19.8991 17.977 19.9327 17.5801 19.7348C17.1833 19.5369 15.9096 19.118 14.3959 17.7696C13.2191 16.7169 12.4243 15.4233 12.1928 15.0275C11.9612 14.6317 12.1686 14.4169 12.3675 14.2191C12.5454 14.0422 12.7633 13.7569 12.9612 13.5254C13.1239 13.3254 13.2572 13.1031 13.357 12.8654C13.4096 12.7561 13.4341 12.6354 13.4282 12.5142C13.4224 12.3931 13.3863 12.2754 13.3233 12.1717C13.2243 11.9738 12.4549 10.0159 12.1064 9.23275Z" fill="white"/>
<defs>
<linearGradient id="paint0_linear_6202_12552" x1="15.9957" y1="31.9872" x2="15.9957" y2="0.015625" gradientUnits="userSpaceOnUse">
<stop stop-color="#F9F9F9"/>
<stop offset="1" stop-color="white"/>
</linearGradient>
</defs>
</svg>
