<svg width="24" height="17" viewBox="0 0 24 17" fill="none" xmlns="http://www.w3.org/2000/svg">
<path d="M23.4982 2.65419C23.2227 1.60952 22.4086 0.78694 21.3764 0.50726C19.5055 -1.78814e-07 12 0 12 0C12 0 4.49455 -1.78814e-07 2.62364 0.50726C1.59136 0.78694 0.777273 1.60952 0.501818 2.65419C0 4.54887 0 8.5 0 8.5C0 8.5 0 12.4511 0.501818 14.3458C0.777273 15.3905 1.59136 16.2131 2.62364 16.4927C4.49455 17 12 17 12 17C12 17 19.5055 17 21.3764 16.4927C22.4086 16.2131 23.2227 15.3905 23.4982 14.3458C24 12.4511 24 8.5 24 8.5C24 8.5 24 4.54887 23.4982 2.65419Z" fill="white"/>
<path d="M9.54492 12.0898L15.8176 8.50185L9.54492 4.91406V12.0898Z" fill="#FF0000"/>
</svg>
